<svg xmlns="http://www.w3.org/2000/svg" width="70.367" height="52.517" viewBox="234.983 7217 70.367 52.517"><path d="M250.985 7237.944c-.783 0-1.531.12-2.279.23.243-.814.49-1.641.89-2.385.4-1.08 1.024-2.015 1.646-2.959.519-1.019 1.433-1.71 2.106-2.583.704-.848 1.664-1.414 2.426-2.117.748-.736 1.725-1.106 2.503-1.625.814-.467 1.522-.981 2.28-1.227l1.888-.778 1.662-.69-1.702-6.794-2.092.505c-.668.168-1.486.364-2.414.6-.951.176-1.964.655-3.093 1.094-1.114.498-2.405.835-3.604 1.634-1.206.764-2.597 1.402-3.824 2.426-1.19 1.057-2.622 1.97-3.681 3.312-1.157 1.255-2.3 2.574-3.188 4.074-1.029 1.43-1.725 3.001-2.461 4.553a38.568 38.568 0 0 0-1.641 4.684c-.83 3.093-1.204 6.03-1.347 8.543-.119 2.518-.049 4.61.099 6.127.051.715.152 1.409.222 1.888l.088.59.092-.022c1.734 8.1 9.437 13.48 17.64 12.319 8.201-1.162 14.108-8.469 13.525-16.732-.583-8.263-7.457-14.668-15.741-14.667Zm38.566 0c-.783 0-1.53.12-2.279.23.244-.814.491-1.641.891-2.385.4-1.08 1.024-2.015 1.646-2.959.518-1.019 1.432-1.71 2.106-2.583.703-.848 1.664-1.414 2.426-2.117.748-.736 1.725-1.106 2.503-1.625.813-.467 1.522-.981 2.279-1.227l1.889-.778 1.661-.69-1.701-6.794-2.092.505c-.669.168-1.487.364-2.415.6-.951.176-1.963.655-3.092 1.094-1.113.5-2.405.835-3.604 1.639-1.206.764-2.597 1.402-3.824 2.426-1.19 1.056-2.623 1.97-3.681 3.31-1.157 1.255-2.3 2.573-3.189 4.073-1.028 1.43-1.725 3.002-2.46 4.554a38.565 38.565 0 0 0-1.642 4.684c-.83 3.092-1.203 6.03-1.346 8.543-.12 2.517-.05 4.609.098 6.126.052.715.152 1.41.222 1.888l.089.59.091-.022c1.735 8.1 9.44 13.479 17.64 12.316 8.202-1.162 14.109-8.469 13.525-16.731-.583-8.263-7.457-14.668-15.74-14.667Z" fill="#a67b48" fill-rule="evenodd" data-name="bxs-quote-alt-left"/></svg>