<svg xmlns="http://www.w3.org/2000/svg" width="1920.017" height="912.8" viewBox="0 6941.1 1920.017 912.8"><path d="m1920.002 7853.891-.002-.001c-25.336-14.555-67.938-28.356-126.62-41.02-28.655-6.185-61.244-12.098-96.861-17.576-35.533-5.463-74.567-10.57-116.02-15.175-84.334-9.37-178.5-16.717-279.88-21.834-104.807-5.29-215.034-8.073-327.62-8.272V7044.99c112.573-.199 222.8-2.982 327.62-8.272 101.383-5.118 195.548-12.464 279.88-21.835 41.46-4.608 80.495-9.714 116.02-15.177 35.615-5.477 68.204-11.39 96.86-17.575 58.683-12.665 101.285-26.467 126.623-41.023l-.001 912.783.001-.002h-.001v.002h.001Zm-1920-.002V6941.11c25.336 14.556 67.937 28.358 126.62 41.023 28.655 6.184 61.244 12.097 96.861 17.574 35.527 5.464 74.56 10.57 116.019 15.177 84.336 9.37 178.5 16.717 279.879 21.834 104.811 5.29 215.038 8.073 327.619 8.272v705.023c-112.58.199-222.807 2.982-327.62 8.272-101.378 5.116-195.542 12.462-279.878 21.832-41.458 4.607-80.492 9.713-116.019 15.176-35.608 5.476-68.197 11.389-96.86 17.574-58.684 12.664-101.285 26.466-126.621 41.022Z" fill="#312e29" fill-rule="evenodd" data-name="Subtraction 1"/></svg>