<svg xmlns="http://www.w3.org/2000/svg" width="16.383" height="12.317" viewBox="205.5 9406.85 16.383 12.317"><path d="M220.858 9406.856h-14.334c-.566 0-1.024.459-1.024 1.024v10.24c0 .565.458 1.023 1.024 1.023h14.334c.566 0 1.024-.458 1.024-1.024v-10.239c0-.565-.458-1.024-1.024-1.024Zm-.788 11.263h-12.696l3.583-3.706-.737-.712-3.696 3.824v-8.867l6.363 6.333c.4.397 1.045.397 1.444 0l6.527-6.491v8.959l-3.768-3.768-.722.722 3.702 3.706Zm-12.875-10.239h12.834l-6.42 6.384-6.414-6.384Z" fill="#fff" fill-rule="evenodd" data-name="email-line"/></svg>