<svg xmlns="http://www.w3.org/2000/svg" width="29.017" height="29.017" viewBox="776.05 9575 29.017 29.017"><path d="M790.552 9575.016c-3.936 0-4.429.017-5.975.087-1.542.071-2.595.316-3.518.674a7.103 7.103 0 0 0-2.568 1.672 7.105 7.105 0 0 0-1.672 2.567c-.357.922-.603 1.976-.674 3.518-.07 1.546-.086 2.039-.086 5.976 0 3.936.016 4.429.087 5.975.071 1.542.316 2.595.674 3.518a7.106 7.106 0 0 0 1.672 2.568 7.106 7.106 0 0 0 2.568 1.672c.922.357 1.976.603 3.518.674 1.546.07 2.04.087 5.975.087 3.936 0 4.43-.017 5.976-.087 1.542-.071 2.595-.316 3.518-.674a7.105 7.105 0 0 0 2.568-1.672 7.105 7.105 0 0 0 1.671-2.568c.358-.922.603-1.976.675-3.518.07-1.546.087-2.04.087-5.975 0-3.936-.018-4.43-.087-5.976-.072-1.542-.316-2.595-.675-3.518a7.105 7.105 0 0 0-1.671-2.568 7.103 7.103 0 0 0-2.568-1.672c-.922-.357-1.976-.603-3.518-.674-1.547-.069-2.04-.086-5.977-.086m0 2.611c3.87 0 4.328.015 5.856.084 1.414.066 2.18.3 2.693.5.675.263 1.16.578 1.666 1.083.508.508.82.992 1.085 1.667.197.511.434 1.278.498 2.691.07 1.53.084 1.986.084 5.858 0 3.87-.014 4.327-.084 5.855-.066 1.415-.301 2.18-.498 2.693-.233.63-.603 1.2-1.085 1.667a4.51 4.51 0 0 1-1.666 1.084c-.511.197-1.279.435-2.691.499-1.528.07-1.986.084-5.858.084-3.87 0-4.33-.015-5.855-.084-1.415-.066-2.181-.302-2.693-.5a4.49 4.49 0 0 1-1.667-1.083 4.49 4.49 0 0 1-1.084-1.667c-.199-.511-.435-1.278-.499-2.691-.07-1.53-.084-1.986-.084-5.857 0-3.87.015-4.328.084-5.856.066-1.415.3-2.18.499-2.693a4.535 4.535 0 0 1 1.084-1.667 4.51 4.51 0 0 1 1.667-1.084c.511-.199 1.278-.435 2.69-.499 1.53-.07 1.987-.084 5.858-.084m0 16.714a4.83 4.83 0 1 1 0-9.662 4.83 4.83 0 1 1 0 9.662m0-12.274a7.443 7.443 0 1 0 0 14.886 7.443 7.443 0 0 0 0-14.886m9.476-.293a1.74 1.74 0 1 1-3.478 0 1.74 1.74 0 0 1 3.478 0" fill="#fff" fill-rule="evenodd" data-name="instagram"/></svg>