<svg xmlns="http://www.w3.org/2000/svg" width="27.5" height="26.283" viewBox="641.733 9576.934 27.5 26.283"><path d="M647.985 9603.202v-17.713h-5.888v17.713h5.888Zm-2.943-20.134c2.052 0 3.33-1.36 3.33-3.06-.037-1.737-1.277-3.06-3.292-3.06-2.013 0-3.33 1.323-3.33 3.06 0 1.7 1.278 3.06 3.253 3.06h.039Zm6.201 20.134h5.888v-9.892c0-.53.038-1.058.193-1.436.426-1.058 1.395-2.154 3.021-2.154 2.13 0 2.983 1.624 2.983 4.006v9.476h5.887v-10.157c0-5.44-2.905-7.972-6.778-7.972-3.177 0-4.571 1.775-5.345 2.984h.04v-2.569h-5.888c.077 1.662 0 17.714 0 17.714Z" fill="#fff" fill-rule="evenodd" data-name="linkedin"/></svg>