<svg xmlns="http://www.w3.org/2000/svg" width="13.233" height="13.233" viewBox="1557.133 9710.384 13.233 13.233"><g data-name="sunny-sharp"><path d="M1563.125 9710.398h1.263v2.64h-1.263v-2.64Z" fill="#7f7f7f" fill-rule="evenodd" data-name="Path 1437"/><path d="M1563.125 9720.96h1.263v2.64h-1.263v-2.64Z" fill="#7f7f7f" fill-rule="evenodd" data-name="Path 1438"/><path d="m1566.11 9713.752 1.867-1.867.894.893-1.867 1.867-.893-.893Z" fill="#7f7f7f" fill-rule="evenodd" data-name="Path 1439"/><path d="m1558.643 9721.22 1.867-1.867.893.893-1.867 1.867-.893-.893Z" fill="#7f7f7f" fill-rule="evenodd" data-name="Path 1440"/><path d="M1567.717 9716.368h2.64v1.262h-2.64v-1.262Z" fill="#7f7f7f" fill-rule="evenodd" data-name="Path 1441"/><path d="M1557.156 9716.368h2.64v1.262h-2.64v-1.262Z" fill="#7f7f7f" fill-rule="evenodd" data-name="Path 1442"/><path d="m1566.111 9720.246.893-.893 1.867 1.867-.893.893-1.867-1.867Z" fill="#7f7f7f" fill-rule="evenodd" data-name="Path 1443"/><path d="m1558.643 9712.778.893-.893 1.867 1.867-.893.893-1.867-1.867Z" fill="#7f7f7f" fill-rule="evenodd" data-name="Path 1444"/><path d="M1563.757 9719.926a2.927 2.927 0 1 1 0-5.854 2.927 2.927 0 0 1 0 5.854Z" fill="#7f7f7f" fill-rule="evenodd" data-name="Path 1445"/></g></svg>