<svg xmlns="http://www.w3.org/2000/svg" width="28.567" height="23.833" viewBox="691.017 9577.884 28.567 23.833"><path d="M719.57 9580.698c-.192.402-.547.912-1.066 1.527a7.867 7.867 0 0 1-1.925 1.623c.021.17.037.329.047.477.083 2.286-.465 4.658-1.225 6.634-1.473 3.674-3.729 6.631-6.952 8.638-3.36 1.929-7.275 2.338-10.882 1.989-2.394-.274-4.754-1.056-6.539-2.53 3.264.39 6.31-.72 8.719-2.513-2.675.067-4.62-1.867-5.536-4.105.413.109.846.096 1.24.064.486-.046.947-.091 1.4-.191-1.706-.55-3.198-1.562-3.977-3.087a6.653 6.653 0 0 1-.668-2.927c.799.421 1.76.831 2.64.795-1.33-1.125-2.395-2.565-2.593-4.216-.125-1.376.22-2.633.716-3.802 1.988 2.186 4.22 3.984 6.794 5.09 1.76.721 3.515 1.107 5.329 1.115-.21-1.621-.047-3.19.716-4.519.897-1.43 2.206-2.26 3.674-2.672 2.101-.54 4.15.222 5.441 1.686 1.392-.15 2.725-.767 3.787-1.4-.451 1.365-1.329 2.723-2.61 3.373a16.544 16.544 0 0 0 3.468-1.05Z" fill="#fff" fill-rule="evenodd" data-name="twitter"/></svg>