<svg xmlns="http://www.w3.org/2000/svg" fill="#000000" width="81.5" height="24.75" viewBox="1613.583 8024.2 81.5 24.75"><g data-name="VIEW-ALL-_1_"><path d="M1694.113 8031.742c-.228-.165-.48-.232-.54-.176-.142.132-5.564 10.512-5.571 10.707-.003.078 1.453.91 3.237 1.852 2.55 1.36 3.303 1.64 3.586 1.376.605-.565.21-.99-2.075-2.143-1.17-.608-2.281-1.233-2.413-1.374-.15-.162.656-2.01 2.185-4.945 1.359-2.55 2.353-4.724 2.24-4.845-.133-.102-.419-.327-.649-.452Z" fill-rule="evenodd" data-name="Path 1416"/><path d="M1683.703 8027.744c-.737-.143-.481-.759-2.834 6.192l-1.783 5.174 2.857.998c3.898 1.387 4.266 1.458 4.56.882.296-.654.068-.818-2.712-1.775-1.371-.458-2.507-.947-2.483-1.083.005-.117.728-2.377 1.622-5.023.912-2.625 1.596-4.887 1.522-5.006-.053-.14-.38-.287-.749-.359Z" fill-rule="evenodd" data-name="Path 1417"/><path d="m1673.762 8025.424-.894-.149-3.202 5.554c-3.225 5.612-3.354 5.96-2.086 6.023.39.014.634-.251 1.241-1.422l.793-1.457 2.72.447 2.758.448.278 1.553c.328 1.808.42 1.948 1.339 1.961.646-.036.616-.31-.62-6.332-.718-3.483-1.34-6.377-1.377-6.417-.038-.04-.483-.154-.95-.21Zm.67 5.982c.2.984.326 1.848.266 1.904-.162.151-3.833-.466-4.021-.668-.132-.14 1-2.368 2.536-4.932l.333-.574.27 1.22c.132.67.397 2.046.616 3.05Z" fill-rule="evenodd" data-name="Path 1418"/><path d="M1657.508 8024.27c-.608.077-.75.208-.803.636-.05.311-.27 2.667-.516 5.238-.266 2.589-.513 4.632-.55 4.591-.057-.06-.978-2.222-2.021-4.798-1.998-4.896-2.183-5.176-3.376-4.592-.377.163-.617 1.444-.983 5.221-.273 2.784-.527 5.022-.605 5.02-.06.017-.962-2.125-2.024-4.721-1.874-4.52-1.984-4.72-2.572-4.662-.373.046-.71.171-.791.285-.167.307 4.324 10.994 4.742 11.322.191.123.699.141 1.152.02.808-.186.81-.225 1.254-5.133.231-2.708.47-5.083.516-5.277.065-.173 1.009 1.892 2.125 4.627 1.566 3.825 2.113 4.938 2.447 4.891 1.12-.176 1.517-.357 1.646-.704.115-.485 1.237-11.914 1.142-12.015-.018-.02-.39-.013-.783.051Z" fill-rule="evenodd" data-name="Path 1419"/><path d="M1638.07 8028.163c-.337.125-1.96.733-3.603 1.359l-2.97 1.147.643 1.702c2.143 5.78 3.487 9.246 3.694 9.468.113.121 1.81-.367 3.751-1.12 2.712-1.018 3.508-1.42 3.44-1.735-.144-.885-.575-.86-3.05.088-1.407.557-2.692 1-2.869 1.014-.156-.006-.472-.466-.667-1.04-.215-.554-.574-1.465-.77-2l-.337-.969 2.693-1.039c1.505-.572 2.714-1.058 2.715-1.097.003-.078-.144-.356-.27-.654-.256-.517-.532-.448-2.848.428a100.696 100.696 0 0 1-2.673 1.02c-.273-.009-1.336-3.133-1.134-3.321.14-.132 1.33-.638 2.658-1.158 1.327-.52 2.497-1.007 2.598-1.1.1-.095.052-.39-.113-.689-.183-.358-.453-.445-.888-.304Z" fill-rule="evenodd" data-name="Path 1420"/><path d="M1626.444 8033.227c-.378.202-.658.388-.66.466.017.059 1.28 2.467 2.84 5.393 2.878 5.395 3.046 5.616 3.934 4.827.201-.189.159-.64-.058-1.155-.492-1.014-5.154-9.616-5.305-9.778-.056-.06-.411.044-.75.247Z" fill-rule="evenodd" data-name="Path 1421"/><path d="M1621.883 8035.745c-.647.602-.714.287 1.362 7.98.411 1.655.66 2.933.467 2.848a345.872 345.872 0 0 1-4.488-2.95c-3.99-2.66-4.202-2.765-4.896-2.457-.417.2-.738.424-.74.502-.003.078 2.439 1.765 5.458 3.707l5.482 3.571.687-.64.706-.66-1.585-6.072c-.88-3.332-1.642-6.133-1.717-6.214-.094-.101-.413.083-.736.385Z" fill-rule="evenodd" data-name="Path 1422"/></g></svg>