<svg xmlns="http://www.w3.org/2000/svg" width="41.45" height="43.1" viewBox="107.983 357.983 41.45 43.1"><g data-name="noun-banking-1033134"><path d="M148.706 374.716a.68.68 0 0 0 .663-.663v-2.74c0-.221-.133-.442-.31-.575l-20.02-12.64a.678.678 0 0 0-.708 0l-20.02 12.64c-.178.133-.31.354-.31.575v2.74c0 .354.31.663.663.663h2.74v20.817h-2.74a.68.68 0 0 0-.663.662v4.2c0 .353.31.662.663.662h40.086a.68.68 0 0 0 .663-.663v-4.199a.68.68 0 0 0-.663-.662h-2.74v-20.817h2.696Zm-20.021-15.292 17.767 11.182h-35.534l17.767-11.182Zm19.358 37.434v2.873h-38.716v-2.873H148.043Zm-35.357-22.142h3.491v20.817h-3.491v-20.817Zm12.993 0v20.817h-3.491v-20.817h3.491Zm9.503 0v20.817h-3.492v-20.817h3.492Zm9.502 0v20.817h-3.492v-20.817h3.492Zm-4.818 20.817h-3.358v-20.817h3.358v20.817Zm-9.502 0h-3.359v-20.817h3.36v20.817Zm-9.502 0h-3.359v-20.817h3.359v20.817Zm24.485-22.143H109.327v-1.414h38.76v1.414h-2.74Z" fill="#a67b48" fill-rule="evenodd" data-name="Path 44"/><path d="M128.685 364.728c-.575 0-1.061-.398-1.061-.929 0-.53.486-.928 1.06-.928.575 0 1.061.398 1.061.928 0 .31.266.53.53.53.266 0 .531-.264.531-.53 0-.928-.663-1.723-1.59-1.944v-.973c0-.309-.266-.53-.531-.53-.31 0-.53.265-.53.53v.929c-.929.22-1.592 1.016-1.592 1.944 0 1.105.973 2.033 2.166 2.033.574 0 1.06.398 1.06.928s-.486.929-1.06.929c-.575 0-1.06-.398-1.06-.929 0-.309-.266-.53-.531-.53s-.53.265-.53.53c0 .929.662 1.724 1.59 1.945v.928c0 .31.266.53.53.53.31 0 .531-.265.531-.53v-.928c.928-.22 1.591-1.016 1.591-1.945 0-1.105-.972-1.988-2.165-1.988Z" fill="#a67b48" fill-rule="evenodd" data-name="Path 45"/></g></svg>