<svg xmlns="http://www.w3.org/2000/svg" width="43.95" height="44.783" viewBox="-0.017 -0.017 43.95 44.783"><g data-name="Group 55"><path d="M2.844 15.329c.262.738.87 1.293 1.631 1.484l10.997 2.762 2.757 2.206a.746.746 0 0 0 .993-.056l2.305-2.306c.383-.323.133-.96.066-1.363l1.326-1.326a.726.726 0 0 0 .17-.774l3.457-3.457a3.271 3.271 0 0 0 .968-2.338c.053-.921-.836-3.26-2.022-2.344l-5.276 5.275c-.262-.086-.57-.035-.77.165l-2.1 2.1-8.648-3.283a.834.834 0 0 1-.525-.62L6.74 4.332c-.195-.953-1.65-.666-1.462.294l1.432 7.121c.158.791.703 1.434 1.458 1.72l9.091 3.452.005.003 2.796 1.077.13.648-1.552 1.552-2.362-1.89a.756.756 0 0 0-.284-.14L4.838 15.367a.837.837 0 0 1-.587-.535l-2.726-7.72a.747.747 0 0 0-1.407.497l2.726 7.72ZM25.906 9.51c.25.654.094 1.439-.415 1.935l-3.401 3.401-.76-.76 4.576-4.576Zm-5.934 5.33 1.364 1.365-.496.495-1.97-.758 1.102-1.102Z" fill="#a67b48" fill-rule="evenodd" data-name="Path 1379"/><path d="M30.496 11.188c0-4.044-1.484-7.928-4.178-10.937-.66-.718-1.755.26-1.111.994 8.572 9.427 1.642 24.944-11.113 24.854-5.217 0-9.966-2.656-12.705-7.102-.507-.83-1.782-.05-1.27.782 8.643 13.99 30.309 7.85 30.377-8.59Z" fill="#a67b48" fill-rule="evenodd" data-name="Path 1380"/><path d="M43.17 15.661h-4.473V6.715a.745.745 0 0 0-.746-.745h-5.763c-.973.003-.976 1.487 0 1.49h5.018v32.058H14.095v-9.707c-.003-.972-1.488-.978-1.491 0v10.453c0 .412.333.745.745.745h8.2v2.982c0 .412.334.746.746.746H43.17a.745.745 0 0 0 .746-.746V16.407a.745.745 0 0 0-.746-.746Zm-.746 27.585H23.041v-2.237h14.91a.745.745 0 0 0 .746-.745V17.152h3.727v26.094Z" fill="#a67b48" fill-rule="evenodd" data-name="Path 1381"/><path d="M29.005 32.063v4.473c0 .412.334.745.746.745h4.473a.745.745 0 0 0 .745-.745v-4.473a.745.745 0 0 0-.745-.746H29.75a.745.745 0 0 0-.746.746Zm1.491.745h2.982v2.982h-2.982v-2.982Z" fill="#a67b48" fill-rule="evenodd" data-name="Path 1382"/><path d="M17.077 32.063h4.473c.974-.004.976-1.487 0-1.491h-4.473c-.974.003-.976 1.487 0 1.49Z" fill="#a67b48" fill-rule="evenodd" data-name="Path 1383"/><path d="M17.077 35.79h7.455c.973-.003.977-1.487 0-1.49h-7.455c-.973.003-.977 1.487 0 1.49Z" fill="#a67b48" fill-rule="evenodd" data-name="Path 1384"/></g></svg>