<svg xmlns="http://www.w3.org/2000/svg" width="42.95" height="42.95" viewBox="415.833 492.983 42.95 42.95"><g data-name="noun-employment-2921500"><path d="M444.317 513.037h8.596a.532.532 0 0 0 .532-.533v-7.685h4.636a.533.533 0 0 0 .398-.887l-9.448-10.603a.55.55 0 0 0-.796 0l-9.448 10.603a.533.533 0 0 0 .397.887h4.6v7.685c0 .295.238.533.533.533Zm-3.944-9.284 8.26-9.27 8.26 9.27h-3.98a.532.532 0 0 0-.533.533v7.686h-7.53v-7.686a.532.532 0 0 0-.533-.533h-3.944Z" fill="#a67b48" fill-rule="evenodd" data-name="Path 1358"/><path d="M452.913 513.187h-8.596a.684.684 0 0 1-.683-.683v-7.535h-4.45a.683.683 0 0 1-.51-1.137l9.449-10.603a.681.681 0 0 1 .51-.22c.198 0 .384.08.51.22l9.448 10.603a.684.684 0 0 1-.51 1.137h-4.486v7.535a.683.683 0 0 1-.682.683Zm-4.28-19.878a.381.381 0 0 0-.287.12L438.9 504.03a.383.383 0 0 0 .285.638h4.75v7.835c0 .211.172.383.383.383h8.596a.383.383 0 0 0 .382-.383v-7.835h4.786a.383.383 0 0 0 .286-.638l-9.448-10.602a.381.381 0 0 0-.286-.12Zm3.897 18.813h-7.83v-7.836a.383.383 0 0 0-.383-.383h-4.279l8.595-9.645 8.594 9.645h-4.314a.383.383 0 0 0-.383.383v7.836Zm-7.53-.3h7.23v-7.536c0-.376.306-.683.683-.683h3.645l-7.925-8.894-7.926 8.894h3.61c.376 0 .682.307.682.683v7.536Z" fill="#a67b48" fill-rule="evenodd" data-name="Path 1358 - Outline"/><path d="M421.359 498.645a5.5 5.5 0 0 0 5.494 5.494 5.5 5.5 0 0 0 5.494-5.494 5.5 5.5 0 0 0-5.494-5.495 5.5 5.5 0 0 0-5.494 5.495Zm9.923 0a4.434 4.434 0 0 1-4.429 4.429 4.434 4.434 0 0 1-4.429-4.43 4.434 4.434 0 0 1 4.43-4.428 4.434 4.434 0 0 1 4.428 4.429Z" fill="#a67b48" fill-rule="evenodd" data-name="Path 1359"/><path d="M426.853 493a5.65 5.65 0 0 1 5.644 5.645 5.65 5.65 0 0 1-5.644 5.644 5.65 5.65 0 0 1-5.644-5.644 5.65 5.65 0 0 1 5.644-5.645Zm0 10.99a5.35 5.35 0 0 0 5.344-5.345 5.35 5.35 0 0 0-5.344-5.345 5.35 5.35 0 0 0-5.344 5.345 5.35 5.35 0 0 0 5.344 5.344Zm0-9.924a4.584 4.584 0 0 1 4.579 4.579 4.584 4.584 0 0 1-4.579 4.579 4.584 4.584 0 0 1-4.579-4.58 4.584 4.584 0 0 1 4.58-4.578Zm0 8.858c2.36 0 4.279-1.92 4.279-4.28 0-2.359-1.92-4.278-4.279-4.278a4.284 4.284 0 0 0-4.279 4.279c0 2.36 1.92 4.279 4.28 4.279Z" fill="#a67b48" fill-rule="evenodd" data-name="Path 1359 - Outline"/><path d="M431.646 507.133h-9.585a6.068 6.068 0 0 0-6.061 6.06v7.656a3.734 3.734 0 0 0 3.196 3.69v10.692c0 .294.238.533.533.533h14.248a.532.532 0 0 0 .533-.533V524.54a3.734 3.734 0 0 0 3.196-3.691v-7.656a6.068 6.068 0 0 0-6.06-6.06Zm4.995 13.716a2.666 2.666 0 0 1-2.664 2.663.532.532 0 0 0-.532.533v10.653H420.26v-10.653a.532.532 0 0 0-.532-.533 2.666 2.666 0 0 1-2.664-2.663v-7.656a5.001 5.001 0 0 1 4.996-4.995h9.584a5.001 5.001 0 0 1 4.996 4.995v7.656Z" fill="#a67b48" fill-rule="evenodd" data-name="Path 1360"/><path d="M422.06 506.983h9.586a6.218 6.218 0 0 1 6.21 6.21v7.656a3.898 3.898 0 0 1-3.196 3.818v10.564a.683.683 0 0 1-.683.683H419.73a.683.683 0 0 1-.683-.683v-10.564a3.898 3.898 0 0 1-3.196-3.818v-7.656a6.218 6.218 0 0 1 6.21-6.21Zm11.917 28.63a.383.383 0 0 0 .383-.382V524.41l.129-.019a3.595 3.595 0 0 0 3.067-3.542v-7.656c0-3.259-2.651-5.91-5.91-5.91h-9.585a5.917 5.917 0 0 0-5.911 5.91v7.656a3.595 3.595 0 0 0 3.067 3.542l.129.019v10.821c0 .211.172.383.383.383h14.248Zm-11.916-27.565h9.584a5.151 5.151 0 0 1 5.146 5.145v7.656a2.817 2.817 0 0 1-2.814 2.813.383.383 0 0 0-.382.383v10.803H420.11v-10.803a.383.383 0 0 0-.382-.383 2.817 2.817 0 0 1-2.814-2.813v-7.656a5.151 5.151 0 0 1 5.146-5.145Zm11.234 26.5v-10.503c0-.376.306-.683.682-.683a2.516 2.516 0 0 0 2.514-2.513v-7.656a4.85 4.85 0 0 0-4.846-4.845h-9.584a4.85 4.85 0 0 0-4.846 4.845v7.656a2.516 2.516 0 0 0 2.514 2.513c.376 0 .682.307.682.683v10.503h12.884Z" fill="#a67b48" fill-rule="evenodd" data-name="Path 1360 - Outline"/><path d="M458.08 534.698h-.275v-14.302a.532.532 0 0 0-.533-.533h-7.258a.532.532 0 0 0-.533.533v14.302h-1.697V517.91a.532.532 0 0 0-.533-.533h-7.258a.532.532 0 0 0-.532.533v16.79h-.277a.532.532 0 1 0 0 1.065h18.897a.532.532 0 1 0 0-1.066Zm-7.533-13.77h6.193v13.77h-6.193v-13.77Zm-10.021-2.486h6.193v16.256h-6.193v-16.256Z" fill="#a67b48" fill-rule="evenodd" data-name="Path 1361"/><path d="M458.08 535.914h-18.896a.683.683 0 0 1 0-1.366h.127V517.91c0-.376.306-.683.682-.683h7.258c.377 0 .683.307.683.683v16.64h1.397v-14.153c0-.376.307-.683.683-.683h7.258c.377 0 .683.307.683.683v14.152h.126a.683.683 0 0 1 0 1.366Zm-18.896-1.066a.383.383 0 0 0 0 .766h18.897a.383.383 0 0 0 0-.766h-.426v-14.452a.383.383 0 0 0-.383-.383h-7.258a.383.383 0 0 0-.383.383v14.452h-1.997V517.91a.383.383 0 0 0-.383-.383h-7.258a.383.383 0 0 0-.382.383v16.94h-.427Zm17.706 0h-6.493v-14.07h6.493v14.07Zm-6.193-.3h5.893v-13.47h-5.893v13.47Zm-3.828.3h-6.493v-16.556h6.493v16.556Zm-6.193-.3h5.893v-15.956h-5.893v15.956Z" fill="#a67b48" fill-rule="evenodd" data-name="Path 1361 - Outline"/></g></svg>