<svg xmlns="http://www.w3.org/2000/svg" width="49.75" height="49.733" viewBox="720.633 355 49.75 49.733"><g data-name="Group 50"><path d="m768.77 385.098-14.172-5.794a2.467 2.467 0 0 0-1.973.049l-2.225 1.04c.02-.179.032-.36.032-.543a4.926 4.926 0 0 0-3.552-4.722l1.81-1.655c.509-.465.8-1.127.8-1.816v-14.236c0-1.197-.974-2.171-2.17-2.171h-3.5a2.174 2.174 0 0 0-2.171 2.17v14.256c0 .673.28 1.324.769 1.787l1.752 1.658a4.925 4.925 0 0 0-3.578 4.73c0 .183.012.363.031.542l-2.224-1.04a2.469 2.469 0 0 0-1.973-.05l-14.174 5.796a2.155 2.155 0 0 0-1.175 1.175 2.155 2.155 0 0 0 0 1.661l1.34 3.233c.221.536.639.953 1.174 1.175a2.169 2.169 0 0 0 1.66.001l14.18-5.797a2.468 2.468 0 0 0 1.365-1.398l.861-2.25c.257.324.555.614.885.864l-2.846 19.986a.616.616 0 0 0 1.218.174l2.777-19.506a4.887 4.887 0 0 0 1.821.354c.643 0 1.257-.128 1.82-.354l2.778 19.506a.615.615 0 0 0 1.218-.174l-2.846-19.986c.33-.25.628-.54.885-.864l.86 2.25a2.47 2.47 0 0 0 1.367 1.398l14.177 5.796a2.163 2.163 0 0 0 1.662 0c.535-.222.953-.64 1.174-1.175l1.34-3.233a2.155 2.155 0 0 0 0-1.661 2.158 2.158 0 0 0-1.178-1.176Zm-29.123-.388c-.12.316-.37.57-.683.698l-14.182 5.799a.934.934 0 0 1-.72 0 .933.933 0 0 1-.509-.51l-1.34-3.233a.935.935 0 0 1 0-.72.931.931 0 0 1 .508-.508l14.17-5.793a1.23 1.23 0 0 1 .987.024l2.878 1.346-1.109 2.897Zm3.616-12.14a1.235 1.235 0 0 1-.384-.894v-14.255c0-.52.422-.941.941-.941h3.5c.518 0 .94.422.94.94v14.237c0 .345-.146.675-.4.908l-2.34 2.14-2.257-2.135Zm2.249 10.97a3.694 3.694 0 0 1-3.69-3.69 3.694 3.694 0 0 1 3.69-3.69 3.694 3.694 0 0 1 3.69 3.69 3.694 3.694 0 0 1-3.69 3.69Zm23.298 3.925-1.339 3.233a.933.933 0 0 1-.51.509.935.935 0 0 1-.721-.001l-14.18-5.798a1.234 1.234 0 0 1-.684-.699l-1.108-2.896 2.878-1.346c.31-.144.67-.154.986-.024l14.169 5.792a.934.934 0 0 1 .51.51.935.935 0 0 1 0 .72Z" fill="#a67b48" fill-rule="evenodd" data-name="Path 1355"/><path d="M750.719 404.7a.87.87 0 0 1-.856-.742l-2.734-19.2a5.11 5.11 0 0 1-3.234 0l-2.734 19.2a.87.87 0 0 1-.976.735.868.868 0 0 1-.737-.979l2.826-19.843a5.25 5.25 0 0 1-.533-.493l-.711 1.86a2.719 2.719 0 0 1-1.505 1.54l-14.18 5.798a2.404 2.404 0 0 1-1.85-.002 2.404 2.404 0 0 1-1.31-1.31l-1.339-3.233a2.403 2.403 0 0 1 0-1.853 2.404 2.404 0 0 1 1.31-1.31l14.175-5.796a2.73 2.73 0 0 1 2.122.03h.001l.051.024 1.839.86a5.192 5.192 0 0 1 3.35-4.97l-1.448-1.372a2.723 2.723 0 0 1-.847-1.968v-14.255A2.424 2.424 0 0 1 743.82 355h3.5c.645 0 1.253.252 1.71.71.458.458.71 1.065.71 1.71v14.237c0 .722-.29 1.416-.8 1.923v.003l-.081.075-1.497 1.369a5.198 5.198 0 0 1 3.318 4.959l1.891-.883a2.73 2.73 0 0 1 2.121-.03l14.172 5.793c.6.25 1.067.715 1.314 1.312a2.403 2.403 0 0 1 0 1.853l-1.34 3.233a2.404 2.404 0 0 1-1.31 1.31 2.406 2.406 0 0 1-1.853 0l-14.176-5.796a2.722 2.722 0 0 1-1.505-1.54l-.712-1.86a5.25 5.25 0 0 1-.532.493l2.826 19.843a.867.867 0 0 1-.857.987Zm-3.184-20.633 2.823 19.82a.367.367 0 0 0 .415.31.366.366 0 0 0 .308-.413l-2.867-20.13.117-.09a4.71 4.71 0 0 0 .84-.82l.272-.345 1.018 2.66a2.22 2.22 0 0 0 1.227 1.257l14.178 5.796a1.91 1.91 0 0 0 1.47 0 1.907 1.907 0 0 0 1.04-1.04l1.34-3.232a1.907 1.907 0 0 0 0-1.47 1.911 1.911 0 0 0-1.042-1.042l-14.17-5.793a2.223 2.223 0 0 0-1.772.044l-2.629 1.229.049-.443c.02-.183.03-.351.03-.515a4.693 4.693 0 0 0-3.371-4.482l-.428-.124 2.139-1.956a2.215 2.215 0 0 0 .718-1.63V357.42c0-.512-.2-.994-.563-1.358a1.908 1.908 0 0 0-1.358-.563h-3.499c-1.06 0-1.921.862-1.921 1.92v14.256c0 .604.252 1.19.69 1.605l2.071 1.96-.422.12a4.688 4.688 0 0 0-3.396 4.49c0 .163.01.331.03.514l.049.443-2.628-1.229a2.224 2.224 0 0 0-1.773-.044l-14.173 5.795a1.906 1.906 0 0 0-1.039 1.04 1.907 1.907 0 0 0 0 1.47l1.34 3.232c.196.475.565.844 1.04 1.04.47.196.995.196 1.467.001l14.18-5.797a2.217 2.217 0 0 0 1.228-1.256l1.017-2.66.273.343c.241.305.524.58.84.822l.117.088-2.867 20.131a.366.366 0 0 0 .362.417c.18 0 .336-.135.361-.314l2.823-19.82.295.118a4.63 4.63 0 0 0 3.456 0l.295-.118Zm-23.113 7.462c-.156 0-.31-.03-.455-.091a1.181 1.181 0 0 1-.645-.645l-1.34-3.233a1.184 1.184 0 0 1 0-.911c.123-.295.35-.523.643-.644l14.171-5.794a1.473 1.473 0 0 1 1.188.029l3.088 1.445-1.191 3.114c-.146.38-.445.687-.822.84l-14.183 5.8c-.144.06-.298.09-.454.09Zm12.935-10.928a.976.976 0 0 0-.371.073l-14.17 5.794a.687.687 0 0 0-.37.901l1.338 3.233a.687.687 0 0 0 .902.374l14.184-5.799a.98.98 0 0 0 .544-.557l1.025-2.68-2.667-1.247a.992.992 0 0 0-.415-.092Zm29.245 10.928c-.157 0-.312-.031-.459-.093l-14.178-5.796a1.485 1.485 0 0 1-.822-.841l-1.191-3.114 3.088-1.445a1.5 1.5 0 0 1 1.188-.029l14.168 5.793c.295.122.524.35.645.645.122.294.122.617 0 .911l-1.339 3.233c-.122.294-.35.523-.645.645-.145.06-.298.09-.455.09Zm-16.017-9.588 1.025 2.679a.984.984 0 0 0 .544.557l14.18 5.797a.686.686 0 0 0 .532.002.685.685 0 0 0 .374-.374l1.34-3.233a.687.687 0 0 0-.374-.903l-14.168-5.792a.995.995 0 0 0-.787.02l-2.666 1.247Zm-5.073 1.85a3.945 3.945 0 0 1-3.94-3.94 3.945 3.945 0 0 1 3.94-3.94 3.945 3.945 0 0 1 3.94 3.94 3.945 3.945 0 0 1-3.94 3.94Zm0-7.38a3.444 3.444 0 0 0-3.44 3.44 3.444 3.444 0 0 0 3.44 3.44 3.444 3.444 0 0 0 3.44-3.44 3.444 3.444 0 0 0-3.44-3.44Zm.004-1.364-2.425-2.296a1.486 1.486 0 0 1-.462-1.075v-14.255c0-.657.534-1.191 1.191-1.191h3.5c.656 0 1.19.534 1.19 1.19v14.237c0 .414-.175.812-.48 1.093l-2.514 2.297Zm-1.696-18.317a.692.692 0 0 0-.691.69v14.256c0 .269.112.528.306.712l2.087 1.976 2.17-1.983a.984.984 0 0 0 .318-.724v-14.236c0-.381-.31-.691-.69-.691h-3.5Z" fill="#a67b48" fill-rule="evenodd" data-name="Path 1355 - Outline"/></g></svg>