<svg xmlns="http://www.w3.org/2000/svg" width="41.383" height="40.633" viewBox="1092.65 358.983 41.383 40.633"><g data-name="noun-family-3843557"><g data-name="Group 53"><path d="M1109.182 380.352v1.086a3.723 3.723 0 1 0 7.445 0v-1.086a3.723 3.723 0 1 0-7.445 0Zm1.43 0a2.293 2.293 0 1 1 4.585 0v1.086a2.293 2.293 0 0 1-4.585 0v-1.086Zm10.271-5.399a4.831 4.831 0 0 0 4.826-4.825v-1.485a4.825 4.825 0 0 0-9.651 0v1.485a4.831 4.831 0 0 0 4.825 4.825Zm-3.388-6.31a3.395 3.395 0 0 1 6.79 0v1.485a3.395 3.395 0 1 1-6.79 0v-1.485Zm-11.709 2.476a5.149 5.149 0 0 0 5.15-5.149v-1.595a5.149 5.149 0 1 0-10.288 0v1.595c0 2.84 2.299 5.143 5.138 5.149Zm-3.718-6.744a3.718 3.718 0 1 1 7.427 0v1.595a3.719 3.719 0 1 1-7.427 0v-1.595Zm31.24 33.792h-5.863v-3.307a4.235 4.235 0 0 0 2.96-4.045v-7.567a6.626 6.626 0 0 0-6.617-6.619h-3.587a.715.715 0 0 0 0 1.43h3.587a5.194 5.194 0 0 1 5.188 5.19v7.57a2.819 2.819 0 0 1-2.363 2.788l-9.089 1.512a1.123 1.123 0 0 1-.5-2.186l7.316-2.145a1.905 1.905 0 0 0 1.363-1.819v-4.472a.715.715 0 0 0-1.43 0v4.478c0 .21-.14.394-.342.45l-4.453 1.303a5.139 5.139 0 0 0-5.11-4.771h-2.932a5.149 5.149 0 0 0-5.049 4.159l-4.91-1.823a.462.462 0 0 1-.302-.43v-5.72a.715.715 0 0 0-1.43 0v5.72a1.9 1.9 0 0 0 1.236 1.777l8.713 3.23a1.101 1.101 0 0 1-.63 2.107l-10.396-2.405a2.813 2.813 0 0 1-2.196-2.752V379.7a5.194 5.194 0 0 1 5.188-5.187h8.232a.715.715 0 0 0 0-1.43h-8.227a6.626 6.626 0 0 0-6.624 6.617v10.114a4.226 4.226 0 0 0 2.748 3.97v4.377h-4.402a.715.715 0 0 0 0 1.43h39.921a.715.715 0 0 0 0-1.43Zm-7.293 0h-6.493v-1.931l6.492-1.08.001 3.01Zm-16.695-1.734a2.533 2.533 0 0 0 .876-4.907l-2.432-.9a3.718 3.718 0 0 1 3.67-3.24h2.938a3.718 3.718 0 0 1 3.718 3.718v.029l-1.47.429a2.553 2.553 0 0 0 .715 5.006c.144 0 .287-.011.43-.035l.334-.055v1.691h-10.382v-2.042l1.03.238c.188.044.38.067.573.068Zm-10.097-2.26 7.064 1.628v2.368h-7.064v-3.996Z" fill="#a67b48" fill-rule="evenodd" data-name="Path 1366"/></g></g></svg>