<svg xmlns="http://www.w3.org/2000/svg" width="43.317" height="44.5" viewBox="416.983 359.983 43.317 44.5"><g data-name="noun-insurance-5597674"><path d="M423.406 378.851h5.684a1.867 1.867 0 0 0 1.865-1.865v-.42a4.71 4.71 0 0 0-3.127-4.432 3.063 3.063 0 0 0 1.487-2.625 3.07 3.07 0 0 0-3.065-3.064 3.07 3.07 0 0 0-3.064 3.064c0 1.114.598 2.09 1.487 2.625a4.71 4.71 0 0 0-3.127 4.432v.42a1.86 1.86 0 0 0 1.86 1.865Zm2.844-11.115a1.773 1.773 0 1 1 .002 3.546 1.773 1.773 0 0 1-.002-3.546Zm-3.418 8.83a3.424 3.424 0 0 1 3.418-3.419 3.424 3.424 0 0 1 3.419 3.419v.42a.575.575 0 0 1-.574.574h-5.69a.575.575 0 0 1-.573-.574v-.42Zm-.234 4.79h13.185c.359 0 .646.287.646.646a.643.643 0 0 1-.646.645h-13.185a.646.646 0 0 1 0-1.29Zm20.95 6.2a.643.643 0 0 1-.646.646h-20.304a.643.643 0 0 1-.646-.645c0-.359.287-.646.646-.646h20.304c.359 0 .645.287.645.646Zm0 5.556a.643.643 0 0 1-.646.646h-20.304a.643.643 0 0 1-.646-.646c0-.358.287-.645.646-.645h20.304c.359 0 .645.287.645.645Zm0 5.555a.643.643 0 0 1-.646.646h-20.304a.643.643 0 0 1-.646-.646c0-.358.287-.645.646-.645h20.304c.359 0 .645.292.645.645Zm16.197-33.475c-4.236-.693-7.712-2.376-10.341-5a.633.633 0 0 0-.908 0 16.49 16.49 0 0 1-1.832 1.577h-26.987a2.679 2.679 0 0 0-2.677 2.677v37.334c0 1.477 1.2 2.677 2.677 2.677h27.24c1.478 0 2.678-1.2 2.678-2.677v-15.81c3.528-2.142 6.215-4.939 7.98-8.314 1.725-3.299 2.638-7.272 2.71-11.818a.644.644 0 0 0-.54-.646Zm-12.827 37.97h-27.241a1.387 1.387 0 0 1-1.387-1.387v-37.333c0-.765.622-1.387 1.387-1.387h24.95c-1.902 1.028-4.068 1.74-6.477 2.137a.644.644 0 0 0-.54.646c.071 4.546.984 8.519 2.71 11.818 1.77 3.375 4.451 6.167 7.98 8.314v15.805c0 .765-.622 1.386-1.382 1.386Zm2.027-18.311c-6.478-3.94-9.762-9.992-10.035-18.483 4.02-.746 7.391-2.366 10.035-4.824 2.644 2.458 6.014 4.078 10.035 4.824-.268 8.491-3.552 14.544-10.035 18.483Zm-2.663-17.65v2.571h-2.572v5.326h2.572v2.572h5.326v-2.572h2.572v-5.326h-2.572V367.2h-5.326Zm6.612 3.862v2.744h-2.572v2.572h-2.744v-2.572H445v-2.744h2.572v-2.572h2.744v2.572h2.577Z" fill="#a67b48" fill-rule="evenodd" data-name="Path 66"/></g></svg>