<svg xmlns="http://www.w3.org/2000/svg" width="45.85" height="46.183" viewBox="723.883 490.983 45.85 46.183"><g data-name="noun-license-4145460"><path d="M725.572 532.115h23.044a5.568 5.568 0 0 0 1.96 3.622h-20.991c-2.128 0-3.662-1.608-4.013-3.622Zm38.358-39.701c2.283.069 3.759 1.644 4.101 3.616H759.8a4.255 4.255 0 0 1 3.643-3.583c.159-.024.321-.03.487-.033Zm-29.571-.006h26.08a5.568 5.568 0 0 0-1.999 4.279v34.771a4.254 4.254 0 0 1-4.278 4.279 4.257 4.257 0 0 1-4.283-4.279c.021-.525-.425-.649-.816-.649H730.08v-34.122c0-2.38 1.896-4.279 4.279-4.279Zm0-1.308a5.59 5.59 0 0 0-5.584 5.587v34.122h-4.127a.65.65 0 0 0-.648.649c0 3.081 2.5 5.587 5.585 5.587h24.576a5.588 5.588 0 0 0 5.584-5.587v-34.123h9.213c.36 0 .648-.29.651-.648 0-3.082-2.532-5.587-5.831-5.587h-29.42Z" fill="#a67b48" fill-rule="evenodd" data-name="Path 1363"/><path d="M754.161 537.145h-24.576a5.692 5.692 0 0 1-5.685-5.687.75.75 0 0 1 .748-.749h4.027v-34.022A5.692 5.692 0 0 1 734.36 491h29.419c1.612 0 3.112.592 4.222 1.666a5.552 5.552 0 0 1 1.71 4.021.756.756 0 0 1-.752.748h-9.113v34.023a5.692 5.692 0 0 1-5.684 5.687Zm-29.513-6.236a.55.55 0 0 0-.548.549 5.492 5.492 0 0 0 5.485 5.487h24.576a5.492 5.492 0 0 0 5.484-5.487v-34.223h9.313a.555.555 0 0 0 .551-.549c0-3.076-2.517-5.486-5.731-5.486h-29.5a5.492 5.492 0 0 0-5.403 5.487v34.222h-4.227Zm26.203 4.928h-21.266a3.925 3.925 0 0 1-2.742-1.083c-.704-.665-1.19-1.596-1.37-2.622l-.02-.117h23.252l.01.088a5.454 5.454 0 0 0 1.924 3.557l.212.177Zm-25.158-3.622c.405 2.052 1.956 3.422 3.892 3.422h20.725a5.65 5.65 0 0 1-1.782-3.422h-22.835Zm28.469 3.622a4.362 4.362 0 0 1-3.106-1.276 4.353 4.353 0 0 1-1.277-3.103c.006-.159-.032-.277-.116-.365-.146-.152-.407-.184-.6-.184H729.98v-34.222a4.356 4.356 0 0 1 4.379-4.379h26.355l-.21.177a5.47 5.47 0 0 0-1.964 4.202v34.771a4.355 4.355 0 0 1-4.378 4.379Zm-23.982-5.128h18.883c.232 0 .55.043.744.246.123.127.18.298.172.507 0 2.34 1.837 4.175 4.183 4.175 2.343 0 4.178-1.836 4.178-4.179v-34.771c0-1.595.665-3.103 1.834-4.179h-25.815c-2.343 0-4.179 1.836-4.179 4.18v34.021Zm37.97-34.58h-8.467l.018-.114a4.337 4.337 0 0 1 1.252-2.455 4.325 4.325 0 0 1 2.477-1.212c.167-.025.338-.031.498-.034 2.176.066 3.823 1.518 4.202 3.699l.02.117Zm-8.232-.2h7.993c-.4-2.017-1.952-3.354-3.984-3.415a4.131 4.131 0 0 0-4.009 3.416Z" fill="#a67b48" fill-rule="evenodd" data-name="Path 1363 - Outline"/><path d="M744.397 503.808a10.253 10.253 0 0 1 10.263 10.263 10.255 10.255 0 0 1-10.263 10.269 10.258 10.258 0 0 1-10.265-10.269 10.254 10.254 0 0 1 10.265-10.263Zm0-1.308c-6.383 0-11.57 5.188-11.57 11.571 0 6.385 5.187 11.574 11.57 11.574 6.382 0 11.575-5.189 11.575-11.574 0-6.383-5.193-11.571-11.575-11.571Z" fill="#a67b48" fill-rule="evenodd" data-name="Path 1364"/><path d="M744.397 502.4c6.437 0 11.674 5.235 11.675 11.671 0 6.437-5.238 11.674-11.675 11.674-6.436 0-11.67-5.237-11.67-11.674 0-6.436 5.234-11.671 11.67-11.671Zm0 23.145c6.327 0 11.475-5.147 11.475-11.474 0-6.325-5.149-11.471-11.475-11.471-6.325 0-11.47 5.146-11.47 11.471 0 6.327 5.145 11.474 11.47 11.474Zm0-21.837c2.772 0 5.376 1.077 7.331 3.033a10.298 10.298 0 0 1 3.032 7.33c0 2.773-1.077 5.378-3.032 7.334a10.294 10.294 0 0 1-7.331 3.035 10.297 10.297 0 0 1-7.333-3.035 10.304 10.304 0 0 1-3.032-7.334c0-2.771 1.076-5.375 3.032-7.33a10.3 10.3 0 0 1 7.333-3.033Zm0 20.532c5.604 0 10.163-4.562 10.163-10.169 0-5.604-4.56-10.163-10.163-10.163-2.72 0-5.273 1.056-7.191 2.974a10.096 10.096 0 0 0-2.974 7.19c0 5.606 4.56 10.168 10.165 10.168Z" fill="#a67b48" fill-rule="evenodd" data-name="Path 1364 - Outline"/><path d="M743.87 508.49c-2.235.25-4.05 1.946-4.05 4.074v3.015c0 2.129 1.815 3.825 4.05 4.074 2.24.255 4.414-.936 5.05-2.971a.928.928 0 0 0-.594-1.204.92.92 0 0 0-1.166.657c-.33 1.043-1.628 1.853-3.083 1.687-1.458-.165-2.404-1.178-2.404-2.243v-3.015c0-1.064.946-2.077 2.404-2.242 1.455-.167 2.753.641 3.083 1.687a.922.922 0 1 0 1.76-.545c-.636-2.037-2.81-3.228-5.05-2.974Z" fill="#a67b48" fill-rule="evenodd" data-name="Path 1365"/><path d="M744.47 508.356c2.144 0 3.971 1.237 4.546 3.078.096.261.08.548-.046.803a1.018 1.018 0 0 1-.915.572 1.02 1.02 0 0 1-.991-.773c-.301-.948-1.396-1.636-2.604-1.636-.124 0-.248.008-.371.022-1.32.149-2.316 1.07-2.316 2.142v3.015c0 1.073.996 1.994 2.316 2.144.121.014.245.02.367.02 1.21 0 2.306-.687 2.608-1.636a1.02 1.02 0 0 1 1.905-.2c.127.255.143.542.045.81-.573 1.834-2.4 3.07-4.543 3.07-.203 0-.41-.011-.612-.034-2.36-.263-4.139-2.058-4.139-4.174v-3.015c0-2.115 1.78-3.909 4.14-4.174.201-.022.406-.034.61-.034Zm3.585 4.253a.82.82 0 0 0 .736-.46.82.82 0 0 0 .035-.651c-.55-1.761-2.3-2.942-4.357-2.942a5.23 5.23 0 0 0-.587.033c-2.259.253-3.962 1.962-3.962 3.975v3.015c0 2.014 1.703 3.723 3.962 3.975.195.022.393.033.589.033 2.056 0 3.805-1.18 4.354-2.935a.824.824 0 0 0-.529-1.079.82.82 0 0 0-1.04.586v.006c-.327 1.03-1.505 1.779-2.8 1.779-.13 0-.26-.008-.39-.022-.71-.08-1.351-.37-1.807-.812-.442-.43-.686-.974-.686-1.531v-3.015c0-.557.244-1.1.686-1.53.456-.443 1.098-.731 1.807-.811.13-.015.263-.023.394-.023 1.294 0 2.47.748 2.796 1.779l.001.006a.82.82 0 0 0 .798.624Z" fill="#a67b48" fill-rule="evenodd" data-name="Path 1365 - Outline"/></g></svg>