<svg xmlns="http://www.w3.org/2000/svg" width="44.633" height="45.4" viewBox="141 25.95 44.633 45.4"><g data-name="Group 43"><g data-name="noun-laurel-wreath-1383528"><path  d="m183.792 43.978-.407.228c.11-.749.176-1.503.198-2.26.174-.178.1-.099.377-.396 1.08-.035 1.536-1.031 1.487-2.186-.6.084-1.328.778-1.512 2.022-.134.11-.253.194-.347.268.022-.76.006-1.521-.05-2.28l.308-.421c.748-.13 1.403-.848 1.18-2.285-.496.144-1.19.808-1.225 2.131-.242.243-.188.193-.287.288a25.011 25.011 0 0 0-.278-2.27l.243-.427c.764-.252 1.234-1.085.892-2.344-.525.228-1.055.991-.951 2.2l-.228.298a25.962 25.962 0 0 0-.496-2.25c.07-.159.035-.074.179-.421.664-.318 1.08-1.15.624-2.364-.421.247-.917.99-.694 2.23-.168.282-.134.228-.173.297a41.507 41.507 0 0 0-.605-2.042c.04-.153.055-.218.139-.565.56-.411.833-1.273.268-2.34-.382.338-.684 1.166-.347 2.231-.12.303-.085.223-.154.397-.213-.62-.431-1.2-.67-1.79 0-.317 0-.193-.039-.6a2.16 2.16 0 0 0-.51-2.517 3.033 3.033 0 0 0 .43 2.429v.495l-.41-.198c-.466-.991-1.28-1.274-1.785-1.175.397 1.031 1.14 1.383 1.8 1.309.297.193.218.144.4.267.269.66.521 1.349.779 2.142l-.327-.174c-.407-.991-1.195-1.373-1.774-1.289.356 1.106 1.11 1.487 1.784 1.428l.401.297c.243.773.466 1.591.61 2.186l-.342-.193c-.377-1.086-1.2-1.462-1.75-1.398.288 1.125 1.031 1.59 1.755 1.541.139.104.248.199.396.322.159.684.308 1.423.432 2.22-.124-.083-.06-.039-.342-.217-.318-1.13-1.14-1.561-1.72-1.487.203.952.768 1.69 1.715 1.66l.386.347c.104.739.184 1.447.228 2.245l-.342-.247c-.248-1.22-1.1-1.66-1.665-1.636.168 1.244.897 1.78 1.65 1.79l.372.38c.04.814.035 1.617 0 2.25-.129-.113-.064-.059-.337-.282-.164-1.417-1.145-1.774-1.581-1.779.104 1.304.738 1.874 1.546 1.938.179.198.149.164.352.416a21.17 21.17 0 0 1-.248 2.206l-.317-.322c0-1.115-.704-1.874-1.487-1.938-.034 1.318.635 1.982 1.418 2.096l.322.456a20.816 20.816 0 0 1-.52 2.186l-.298-.357c.1-1.249-.58-1.982-1.303-2.106-.149 1.04.218 1.982 1.234 2.265.054.089.223.401.277.495a20.003 20.003 0 0 1-.812 2.072c-.105-.164-.055-.09-.263-.401a1.824 1.824 0 0 0-1.11-2.28c-.322 1.313.218 2.146.99 2.433l.229.526a17.065 17.065 0 0 1-1.066 1.947c-.089-.183-.05-.099-.228-.446.496-1.402-.287-2.215-.867-2.438-.496 1.234-.07 2.185.753 2.587.134.426.13.391.174.56-.401.62-.838 1.215-1.309 1.784-.074-.203-.04-.109-.188-.495.709-1.487-.159-2.35-.605-2.583-.664 1.235-.297 2.25.471 2.721.08.397.08.372.114.595-.467.558-.963 1.09-1.487 1.596-.06-.218-.034-.119-.143-.496.892-1.452.074-2.433-.342-2.71-.808 1.174-.575 2.264.203 2.83.04.426.044.465.054.619-.46.431-1.12.991-1.68 1.412-.04-.233 0-.124-.099-.54.991-1.303.441-2.379-.084-2.805-.952 1.105-.858 2.235-.09 2.92v.634c-.649.495-1.263.897-1.798 1.234-.03-.238 0-.134-.07-.56.991-1.1.818-2.25.159-2.885-1.155 1.214-1.056 2.26-.342 2.974 0 .421 0 .416-.045.64-.624.386-1.259.743-1.898 1.08 0-.248 0-.14-.03-.58 1.234-1.21.848-2.429.372-2.944-1.234 1.02-1.299 2.195-.57 3.038-.064.495-.05.362-.09.65-.738.376-1.14.56-1.982.94v-.589c1.26-1.12 1.1-2.34.56-2.974-1.372.992-1.486 2.216-.778 3.088l-.114.674c-1.868.872-1.551.719-1.982.937l-.04-.625c1.309-1.288 1.254-2.443.684-3.137-1.69 1.13-1.685 2.37-.902 3.241-.06.526-.045.377-.08.694-.842.431-1.818.957-2.844 1.556a50.426 50.426 0 0 0-2.845-1.556c-.035-.317 0-.168-.08-.694.784-.872.789-2.111-.901-3.241-.57.694-.625 1.849.684 3.137l-.04.625c-.421-.218-.104-.065-1.982-.937l-.114-.674c.694-.872.594-2.082-.778-3.088-.54.66-.7 1.879.56 2.974v.605c-.828-.382-1.23-.565-1.983-.942-.04-.287-.025-.164-.09-.65.73-.842.665-2.016-.57-3.037-.495.495-.861 1.734.373 2.944-.025.44 0 .332-.03.58a31.545 31.545 0 0 1-1.898-1.081c0-.223 0-.218-.045-.64.714-.728.813-1.774-.342-2.973-.659.634-.823 1.784.159 2.884-.055.427-.04.323-.07.56a25.414 25.414 0 0 1-1.799-1.234V56.8c.768-.684.863-1.814-.089-2.92-.525.427-1.056 1.488-.084 2.806-.08.416-.06.307-.1.54-.56-.421-1.219-.991-1.68-1.412 0-.154 0-.194.055-.62.758-.565.991-1.64.188-2.835-.416.278-1.234 1.26-.342 2.711-.109.392-.084.293-.143.496a20.766 20.766 0 0 1-1.487-1.596c.035-.223.035-.198.114-.595.768-.495 1.135-1.487.47-2.72-.445.232-1.313 1.105-.604 2.581-.149.377-.114.283-.188.496a19.091 19.091 0 0 1-1.309-1.784c.045-.169.04-.134.174-.56.822-.402 1.234-1.353.753-2.587-.58.223-1.343 1.036-.867 2.438-.179.347-.14.263-.228.446a17.064 17.064 0 0 1-1.066-1.948l.228-.525c.798-.287 1.338-1.12 1.016-2.433a1.824 1.824 0 0 0-1.085 2.284c-.208.313-.159.238-.263.402a20.004 20.004 0 0 1-.798-2.072c.055-.094.223-.406.278-.495 1.016-.258 1.382-1.225 1.234-2.265-.724.119-1.403.857-1.304 2.106l-.297.357a20.817 20.817 0 0 1-.496-2.166l.322-.456c.784-.119 1.453-.778 1.418-2.097-.763.065-1.487.823-1.487 1.938l-.342.288a21.172 21.172 0 0 1-.248-2.226c.203-.252.174-.218.352-.416.808-.064 1.442-.634 1.546-1.938-.436 0-1.417.362-1.58 1.78-.273.223-.209.168-.338.282a26.113 26.113 0 0 1 0-2.25l.372-.382c.753 0 1.487-.545 1.65-1.789-.564-.025-1.417.416-1.665 1.636l-.342.248a26.88 26.88 0 0 1 .228-2.246l.387-.347c.947.03 1.512-.708 1.715-1.66-.58-.05-1.403.382-1.72 1.487-.283.178-.218.134-.342.218.124-.798.273-1.536.431-2.22.149-.124.258-.218.397-.323.723.05 1.486-.416 1.754-1.54-.55-.065-1.373.311-1.75 1.397l-.341.193c.143-.595.366-1.412.61-2.186l.4-.297c.675.064 1.428-.322 1.785-1.427-.58-.085-1.368.297-1.774 1.288l-.328.174c.258-.793.496-1.487.779-2.141l.401-.268c.66.074 1.403-.278 1.8-1.308-.496-.1-1.32.193-1.785 1.174l-.411.198v-.495c.485-.718.64-1.609.426-2.449a2.16 2.16 0 0 0-.526 2.518c-.03.407 0 .283-.04.6-.237.59-.455 1.17-.668 1.79-.07-.174-.035-.095-.154-.397.337-1.066.035-1.894-.347-2.23-.565 1.065-.292 1.927.268 2.339.084.347.099.411.139.565a41.502 41.502 0 0 0-.605 2.042l-.174-.298c.223-1.224-.272-1.982-.693-2.23-.456 1.214-.04 2.047.624 2.364.144.347.11.263.178.421a45.216 45.216 0 0 0-.495 2.25l-.228-.297c.104-1.204-.426-1.982-.952-2.2-.342 1.258.13 2.091.892 2.344l.243.426a25.01 25.01 0 0 0-.277 2.27c-.1-.094-.045-.045-.288-.288-.034-1.323-.718-1.982-1.224-2.13-.223 1.437.431 2.155 1.18 2.284l.307.421c-.055.759-.071 1.52-.05 2.28-.094-.074-.213-.158-.347-.267-.163-1.205-.892-1.899-1.496-1.983-.045 1.155.411 2.151 1.486 2.186.278.297.204.218.377.396.022.757.088 1.511.198 2.26l-.406-.228c-.392-1.358-1.244-1.853-1.809-1.853.114 1.56.991 2.136 1.809 2.032.213.173.173.143.451.352.114.745.27 1.483.466 2.21-.193-.07-.11-.035-.461-.168-.58-1.329-1.522-1.73-2.111-1.636.317 1.561 1.263 2.062 2.136 1.81l.52.296c.211.72.461 1.429.749 2.122l-.496-.104c-.867-1.353-1.898-1.487-2.399-1.329.59 1.596 1.606 1.918 2.448 1.487.288.114.243.094.58.213.308.68.652 1.341 1.031 1.983h-.55c-.991-1.175-2.091-1.269-2.637-.991.62 1.194 1.7 1.868 2.716 1.144l.64.124c.384.643.806 1.262 1.264 1.854-.179.025-.347.05-.57.07-1.26-1.106-2.38-.913-2.82-.56.842 1.14 2.012 1.64 2.929.733h.674c.467.575.963 1.126 1.487 1.65l-.575.159c-1.304-.858-2.439-.684-2.934-.144.951 1.021 2.284 1.373 3.067.302.496-.044.328-.03.7-.074.648.634 1.08.991 1.65 1.462-.293.129-.179.08-.575.243-1.552-.748-2.612-.282-2.974.268 1.165.921 2.478 1.075 3.142-.12.362-.079.293-.064.704-.168.317.243.922.719 1.784 1.279l-.58.352c-1.75-.56-2.676 0-2.973.644 1.268.758 2.617.838 3.162-.496l.703-.252c.615.4 1.238.765 1.869 1.095l-.55.397c-1.784-.417-2.711.307-2.974.99 1.338.67 2.746.536 3.147-.872l.724-.317c.644.342 1.298.664 1.948.957l-.536.466c-1.734-.288-2.7.495-2.899 1.298 1.903.674 2.894-.04 3.112-1.19l.68-.406 1.942.917-.555.496c-1.69-.248-2.597.624-2.76 1.487 1.76.495 2.755-.288 2.973-1.398l.71-.406c.871.446 1.922.99 3.003 1.645-3.039 1.814-6.374 4.257-7.559 6.795.053.172.123.338.209.496.252-.912 1.397-2.196 2.046-2.88 1.27-1.437 3.485-2.949 5.616-4.213 2.13 1.264 4.346 2.776 5.625 4.208.65.684 1.794 1.983 2.052 2.88.082-.16.15-.325.203-.496-1.184-2.538-4.52-4.98-7.558-6.795 1.08-.634 2.131-1.2 3.003-1.645l.71.406c.212 1.11 1.208 1.898 2.973 1.398-.164-.882-1.07-1.755-2.76-1.487l-.556-.496 1.943-.917.679.407c.218 1.15 1.21 1.863 3.112 1.19-.198-.809-1.164-1.587-2.899-1.3l-.535-.465c.649-.293 1.303-.615 1.948-.957l.698.332c.402 1.408 1.81 1.542 3.148.873-.243-.684-1.17-1.408-2.974-.992l-.535-.406a32.92 32.92 0 0 0 1.878-1.11l.704.253c.545 1.353 1.893 1.273 3.162.495-.308-.624-1.234-1.204-2.974-.644l-.565-.327a21.449 21.449 0 0 0 1.784-1.279c.412.104.342.09.704.169.66 1.194 1.982 1.04 3.142.119-.371-.55-1.432-.992-2.973-.268-.397-.164-.283-.114-.575-.243.57-.47.99-.828 1.65-1.462.372.045.223.03.699.074.783 1.07 2.116.719 3.068-.302-.496-.54-1.63-.714-2.934.144l-.575-.159a21.7 21.7 0 0 0 1.487-1.65h.674c.917.907 2.086.406 2.929-.734-.441-.352-1.561-.545-2.82.56-.223 0-.392-.044-.57-.07.46-.583.885-1.194 1.273-1.828l.64-.124c.991.724 2.096.05 2.716-1.145-.545-.302-1.636-.208-2.637.991h-.55c.38-.641.723-1.303 1.03-1.982.338-.119.293-.1.58-.213.843.406 1.86.084 2.45-1.487-.497-.173-1.532-.025-2.4 1.328l-.495.104c.287-.693.537-1.4.748-2.12l.496-.298c.872.253 1.819-.248 2.136-1.81-.59-.093-1.532.308-2.112 1.631-.351.134-.267.1-.46.169.196-.728.352-1.466.465-2.21.278-.209.238-.179.451-.353.838.105 1.695-.495 1.81-2.032-.576-.03-1.428.466-1.824 1.824Z" fill-rule="evenodd" data-name="Path 461"/></g><g data-name="noun-law-3307042"><path d="M158.508 49.512h-1.745v.873h13.087v-.873H158.508Z" fill-rule="evenodd" data-name="Path 4"/><path d="M163.307 33.371c-.296 0-.59.043-.873.128v12.087a.436.436 0 0 1-.046.195l-.557 1.114h2.951l-.557-1.114a.436.436 0 0 1-.046-.195V33.499a3.046 3.046 0 0 0-.872-.128Z" fill-rule="evenodd" data-name="Path 5"/><path d="M164.18 27.344v-.517a.873.873 0 0 0-1.746 0v.517a4.795 4.795 0 0 1 1.745 0Z" fill-rule="evenodd" data-name="Path 6"/><path d="M159.38 48.64h7.853l-.654-.873h-6.544l-.654.873Z" fill-rule="evenodd" data-name="Path 7"/><path d="M152 41.223a2.618 2.618 0 0 0 5.163 0h-5.162Z" fill-rule="evenodd" data-name="Path 8"/><path d="m154.451 36.425-1.427 3.926h3.116l-1.427-3.926h-.262Z" fill-rule="evenodd" data-name="Path 9"/><path d="M173.079 34.68a6.532 6.532 0 0 1-5.774-3.465l-.534-1a3.926 3.926 0 0 0-6.929 0l-.533 1a6.532 6.532 0 0 1-5.774 3.465h-2.443v.872h5.613a4.361 4.361 0 0 0 2.873-1.08l1.148-1.004a3.92 3.92 0 0 1 5.162 0l1.148 1.005a4.361 4.361 0 0 0 2.872 1.08h5.614v-.873h-2.443Z" fill-rule="evenodd" data-name="Path 10"/><path d="M172.032 43.405a2.622 2.622 0 0 0 2.58-2.182h-5.161a2.622 2.622 0 0 0 2.58 2.182Z" fill-rule="evenodd" data-name="Path 11"/><path d="m171.901 36.425-1.428 3.926h3.117l-1.428-3.926h-.261Z" fill-rule="evenodd" data-name="Path 12"/></g></g></svg>