<svg xmlns="http://www.w3.org/2000/svg" width="28.35" height="28.333" viewBox="1490.117 36.017 28.35 28.333"><g data-name="bx-phone-call"><path d="M1510.766 64.337h.04c.747 0 1.453-.294 1.988-.83l3.838-3.838a1.414 1.414 0 0 0 0-2.001l-5.661-5.662a1.414 1.414 0 0 0-2.002 0l-2.256 2.256c-1.046-.311-2.998-1.019-4.235-2.256-1.237-1.237-1.945-3.19-2.256-4.235l2.256-2.256a1.414 1.414 0 0 0 0-2.001l-5.662-5.662a1.458 1.458 0 0 0-2.001 0l-3.837 3.838a2.828 2.828 0 0 0-.83 2.031c.034 2.016.567 9.016 6.084 14.534 5.518 5.517 12.518 6.05 14.534 6.081Zm-14.948-23.483 3.66 3.66-1.83 1.83a1.41 1.41 0 0 0-.383 1.291c.034.164.864 4.023 3.214 6.373 2.35 2.35 6.209 3.18 6.372 3.214.467.1.954-.046 1.29-.385l1.83-1.83 3.66 3.661-2.839 2.838c-1.766-.03-7.81-.504-12.558-5.255-4.765-4.763-5.226-10.828-5.254-12.558l2.837-2.838Zm19.808 7.914h2.83c0-7.262-5.481-12.737-12.753-12.737v2.83c5.75 0 9.923 4.167 9.923 9.907Z" fill-rule="evenodd" data-name="Path 22"/><path d="M1505.717 44.523c2.977 0 4.246 1.27 4.246 4.246h2.83c0-4.565-2.511-7.077-7.076-7.077v2.831Z" fill-rule="evenodd" data-name="Path 23"/></g></svg>