<svg xmlns="http://www.w3.org/2000/svg" width="46.783" height="44.667" viewBox="1091.183 221.933 46.783 44.667"><g data-name="noun-procurement-5634752"><g data-name="Group 54"><path d="M1131.413 255.771h-23.416a.525.525 0 0 1-.517-.408l-5.881-21.101a.524.524 0 0 1 .517-.68h32.02c3.103 0 4.22 2.259 3.403 4.818l-5.61 16.99a.53.53 0 0 1-.516.381Zm-23.007-1.09h22.625l5.473-16.635c.653-2.042-.218-3.376-2.369-3.376h-31.31l5.58 20.012Z" fill="#a67b48" fill-rule="evenodd" data-name="Path 1367"/><path d="M1131.413 255.921h-23.416a.673.673 0 0 1-.662-.522l-5.88-21.094a.66.66 0 0 1 .094-.59.69.69 0 0 1 .567-.284h32.02c1.436 0 2.54.472 3.193 1.366.68.932.806 2.228.352 3.649l-5.607 16.986a.68.68 0 0 1-.661.489Zm-29.297-22.19a.393.393 0 0 0-.324.16.355.355 0 0 0-.05.323l.002.007 5.883 21.11c.038.17.19.29.37.29h23.416c.173 0 .333-.115.371-.268l.003-.01 5.61-16.99c.422-1.326.313-2.526-.31-3.379-.594-.813-1.615-1.243-2.952-1.243h-32.019Zm29.024 21.1h-22.848l-.03-.109-5.635-20.202h31.508c1.073 0 1.878.326 2.329.944.466.638.529 1.547.183 2.628l-5.507 16.74Zm-22.62-.3h22.403L1136.36 238c.316-.985.267-1.8-.14-2.358-.391-.537-1.113-.82-2.086-.82h-31.113l5.498 19.71Z" fill="#a67b48" fill-rule="evenodd" data-name="Path 1367 - Outline"/><path d="M1102.116 234.67a.525.525 0 0 1-.517-.408l-1.47-5.473h-8.25c-.708 0-.708-1.089 0-1.089h8.658c.245 0 .463.163.518.408l1.579 5.881a.527.527 0 0 1-.518.681Z" fill="#a67b48" fill-rule="evenodd" data-name="Path 1368"/><path d="M1102.116 234.82a.673.673 0 0 1-.663-.522l-1.44-5.359h-8.134c-.447 0-.68-.35-.68-.694 0-.18.06-.347.169-.473a.654.654 0 0 1 .511-.222h8.658c.321 0 .593.215.663.523l1.578 5.875a.662.662 0 0 1-.1.592.7.7 0 0 1-.562.28Zm-10.237-6.97c-.263 0-.38.198-.38.395 0 .196.117.394.38.394h8.365l1.501 5.59c.039.171.191.291.371.291.128 0 .248-.06.321-.159a.36.36 0 0 0 .053-.327l-.001-.006-1.58-5.887a.374.374 0 0 0-.372-.29h-8.658Z" fill="#a67b48" fill-rule="evenodd" data-name="Path 1368 - Outline"/><path d="M1126.675 266.444a4.41 4.41 0 0 1-4.41-4.41 4.387 4.387 0 0 1 4.41-4.384 4.38 4.38 0 0 1 4.384 4.383c0 2.423-1.96 4.41-4.384 4.41Zm0-7.705c-1.824 0-3.322 1.47-3.322 3.294a3.318 3.318 0 0 0 3.322 3.322c1.824 0 3.294-1.498 3.294-3.322a3.306 3.306 0 0 0-3.294-3.294Z" fill="#a67b48" fill-rule="evenodd" data-name="Path 1369"/><path d="M1126.675 266.594a4.566 4.566 0 0 1-4.56-4.56c0-1.214.472-2.353 1.33-3.208a4.546 4.546 0 0 1 3.23-1.326c2.5 0 4.534 2.033 4.534 4.533 0 2.515-2.034 4.56-4.534 4.56Zm0-8.794c-2.35 0-4.26 1.899-4.26 4.233 0 2.35 1.91 4.26 4.26 4.26 2.335 0 4.234-1.91 4.234-4.26a4.238 4.238 0 0 0-4.234-4.233Zm0 7.705a3.476 3.476 0 0 1-3.472-3.472c0-1.9 1.558-3.444 3.472-3.444 1.9 0 3.444 1.545 3.444 3.444 0 1.914-1.545 3.472-3.444 3.472Zm0-6.616c-1.749 0-3.172 1.41-3.172 3.144a3.175 3.175 0 0 0 3.172 3.172c1.734 0 3.144-1.423 3.144-3.172a3.148 3.148 0 0 0-3.144-3.144Z" fill="#a67b48" fill-rule="evenodd" data-name="Path 1369 - Outline"/><path d="M1112.708 266.444a4.427 4.427 0 0 1-4.411-4.41c0-2.424 1.987-4.384 4.41-4.384 2.424 0 4.411 1.96 4.411 4.383a4.427 4.427 0 0 1-4.41 4.41Zm0-7.705c-1.825 0-3.322 1.47-3.322 3.294a3.335 3.335 0 0 0 3.322 3.322 3.335 3.335 0 0 0 3.321-3.322c0-1.824-1.497-3.294-3.321-3.294Z" fill="#a67b48" fill-rule="evenodd" data-name="Path 1370"/><path d="M1112.708 266.594a4.566 4.566 0 0 1-4.561-4.56c0-2.5 2.046-4.534 4.56-4.534 2.515 0 4.561 2.033 4.561 4.533a4.566 4.566 0 0 1-4.56 4.56Zm0-8.794c-2.35 0-4.261 1.899-4.261 4.233 0 2.35 1.911 4.26 4.26 4.26 2.35 0 4.261-1.91 4.261-4.26 0-2.334-1.91-4.233-4.26-4.233Zm0 7.705a3.476 3.476 0 0 1-3.472-3.472c0-1.9 1.557-3.444 3.472-3.444 1.914 0 3.471 1.545 3.471 3.444a3.476 3.476 0 0 1-3.471 3.472Zm0-6.616c-1.75 0-3.172 1.41-3.172 3.144a3.175 3.175 0 0 0 3.172 3.172 3.175 3.175 0 0 0 3.171-3.172c0-1.734-1.422-3.144-3.171-3.144Z" fill="#a67b48" fill-rule="evenodd" data-name="Path 1370 - Outline"/><path d="M1119.324 234.67h-13.505a.546.546 0 0 1-.544-.544v-5.936c0-.68.571-1.252 1.252-1.252h12.797c.3 0 .544.245.544.544v6.644c0 .3-.245.544-.544.544Zm-12.96-1.089h12.415v-5.554h-12.252a.176.176 0 0 0-.163.163v5.391Z" fill="#a67b48" fill-rule="evenodd" data-name="Path 1374"/><path d="M1119.324 234.82h-13.505a.695.695 0 0 1-.694-.694v-5.936c0-.76.642-1.402 1.402-1.402h12.797c.383 0 .694.311.694.694v6.644a.695.695 0 0 1-.694.694Zm-12.797-7.732c-.597 0-1.102.505-1.102 1.102v5.936c0 .217.177.394.394.394h13.505a.395.395 0 0 0 .394-.394v-6.644a.395.395 0 0 0-.394-.394h-12.797Zm12.402 6.643h-12.715v-5.54c0-.165.15-.314.313-.314h12.402v5.854Zm-12.415-.3h12.115v-5.254h-12.099a.04.04 0 0 0-.017.018v5.236Z" fill="#a67b48" fill-rule="evenodd" data-name="Path 1374 - Outline"/><path d="M1119.324 228.027h-9.094a.546.546 0 0 1-.545-.545v-4.329c0-.599.49-1.062 1.062-1.062h8.087a1.04 1.04 0 0 1 1.034 1.062v4.33c0 .299-.245.544-.544.544Zm-8.55-1.09h8.005v-3.757h-8.004v3.758Z" fill="#a67b48" fill-rule="evenodd" data-name="Path 1375"/><path d="M1119.324 228.177h-9.094a.695.695 0 0 1-.695-.695v-4.329c0-.668.544-1.212 1.212-1.212h8.087c.664 0 1.184.533 1.184 1.212v4.33a.695.695 0 0 1-.694.694Zm-8.577-5.936a.913.913 0 0 0-.912.912v4.33c0 .217.177.394.395.394h9.094a.395.395 0 0 0 .394-.395v-4.329c0-.511-.388-.912-.884-.912h-8.087Zm8.182 4.847h-8.304v-4.058h8.304v4.058Zm-8.004-.3h7.704v-3.458h-7.704v3.458Z" fill="#a67b48" fill-rule="evenodd" data-name="Path 1375 - Outline"/><path d="M1124.987 231.022h-5.663a.546.546 0 0 1-.545-.545v-5.363c0-.3.245-.545.545-.545h5.663c.3 0 .545.245.545.545v5.363c0 .3-.246.545-.545.545Zm-5.119-1.09h4.574v-4.274h-4.574v4.275Z" fill="#a67b48" fill-rule="evenodd" data-name="Path 1376"/><path d="M1124.987 231.172h-5.663a.695.695 0 0 1-.695-.695v-5.363c0-.383.312-.695.695-.695h5.663c.383 0 .695.312.695.695v5.363a.695.695 0 0 1-.695.695Zm-5.663-6.453a.395.395 0 0 0-.395.395v5.363c0 .218.177.395.395.395h5.663a.395.395 0 0 0 .395-.395v-5.363a.395.395 0 0 0-.395-.395h-5.663Zm5.268 5.364h-4.874v-4.575h4.874v4.575Zm-4.574-.3h4.274v-3.975h-4.274v3.975Z" fill="#a67b48" fill-rule="evenodd" data-name="Path 1376 - Outline"/><path d="M1133.917 234.67h-14.593a.546.546 0 0 1-.545-.544v-3.649c0-.3.245-.544.545-.544h14.593c.3 0 .545.245.545.544v3.649c0 .3-.245.544-.545.544Zm-14.049-1.089h13.505v-2.56h-13.505v2.56Z" fill="#a67b48" fill-rule="evenodd" data-name="Path 1377"/><path d="M1133.917 234.82h-14.593a.695.695 0 0 1-.695-.694v-3.649c0-.383.312-.694.695-.694h14.593c.383 0 .695.311.695.694v3.649a.695.695 0 0 1-.695.694Zm-14.593-4.737a.395.395 0 0 0-.395.394v3.649c0 .217.177.394.395.394h14.593a.395.395 0 0 0 .395-.394v-3.649a.395.395 0 0 0-.395-.394h-14.593Zm14.199 3.648h-13.805v-2.86h13.805v2.86Zm-13.505-.3h13.205v-2.26h-13.205v2.26Z" fill="#a67b48" fill-rule="evenodd" data-name="Path 1377 - Outline"/><path d="M1133.917 231.022h-8.93a.546.546 0 0 1-.545-.545v-6.071c0-.545.436-.98 1.008-.98h8.005c.544 0 1.007.435 1.007.98v6.071c0 .3-.245.545-.545.545Zm-8.386-1.09h7.842v-5.445h-7.842v5.446Z" fill="#a67b48" fill-rule="evenodd" data-name="Path 1378"/><path d="M1133.917 231.172h-8.93a.695.695 0 0 1-.695-.695v-6.071c0-.634.509-1.13 1.158-1.13h8.005c.638 0 1.157.506 1.157 1.13v6.071a.695.695 0 0 1-.695.695Zm-8.467-7.597c-.481 0-.858.365-.858.83v6.072c0 .218.177.395.395.395h8.93a.395.395 0 0 0 .395-.395v-6.071c0-.458-.385-.83-.857-.83h-8.005Zm8.073 6.508h-8.142v-5.746h8.142v5.746Zm-7.841-.3h7.54v-5.146h-7.54v5.146Z" fill="#a67b48" fill-rule="evenodd" data-name="Path 1378 - Outline"/></g></g></svg>