<svg xmlns="http://www.w3.org/2000/svg" width="43.883" height="38.133" viewBox="416.983 225.067 43.883 38.133"><g data-name="noun-real-estate-1358480"><path d="m460.507 241.675-2.74-1.302v-6.851a.603.603 0 0 0-.604-.603h-5.48a.603.603 0 0 0-.604.603v3.679l-3.425-1.617a.596.596 0 0 0-.514 0l-6.167 2.932-3.768-1.802a.596.596 0 0 0-.514 0l-2.583 1.234V225.69a.603.603 0 0 0-.603-.603h-15.902a.603.603 0 0 0-.603.603v36.903c0 .333.27.603.603.603h40.849c.333 0 .603-.27.603-.603v-17.766l.938.445a.603.603 0 0 0 .857-.541v-2.515a.603.603 0 0 0-.343-.541Zm-8.222-7.537h4.276v5.694l-2.166-1.035-2.11-1.007v-3.652Zm-15.279 3.796 3.769 1.802 2.63 1.26 8.86 4.228v1.788l-14.978-7.2a.596.596 0 0 0-.514 0l-12.058 5.755-2.919 1.411v-1.788l15.21-7.256Zm-8.07 1.74h-6.695v-2.74h6.694v2.74Zm-10.737-13.388h14.786v12.217l-2.85 1.37v-3.508a.603.603 0 0 0-.604-.603h-7.886a.603.603 0 0 0-.603.603v3.912c0 .333.27.603.603.603h6.372l-7.105 3.426a.603.603 0 0 0-.342.541v3.118a.603.603 0 0 0 .856.54l2.946-1.404v14.895h-6.166l-.007-35.71Zm7.372 20.206 11.463-5.482 11.455 5.482v15.504h-7.886v-9.304a.603.603 0 0 0-.603-.603h-5.947a.603.603 0 0 0-.603.603v9.304h-7.879v-15.504Zm9.078 15.504v-8.708h4.755v8.702l-4.755.006Zm23.207 0h-8.174V247.06l2.946 1.412a.59.59 0 0 0 .24.054h.157a.596.596 0 0 0 .432-.575v-3.124a.603.603 0 0 0-.343-.542l-8.023-3.87 2.37-1.138 3.749 1.788c.02.032.042.062.068.09a.596.596 0 0 0 .164.109h.042a.59.59 0 0 0 .205.041l6.167 2.905v17.786Zm1.795-18.218-.94-.445-.602-.288-6.009-2.87-.157-.069-4.255-2.055a.596.596 0 0 0-.26-.062c-.09 0-.18.022-.26.062l-3.447 1.699-1.24-.59 5.001-2.39 3.96 1.89 3.926 1.884 4.296 2.056-.013 1.178Z" fill="#a67b48" fill-rule="evenodd" data-name="Path 64"/><path d="M421.645 234.638h7.893c.333 0 .603-.27.603-.602v-3.906a.603.603 0 0 0-.603-.603h-7.893a.603.603 0 0 0-.603.603v3.912c.004.33.273.596.603.596Zm.603-3.912h6.694v2.74h-6.7l.006-2.74Z" fill="#a67b48" fill-rule="evenodd" data-name="Path 65"/></g></svg>