<svg xmlns="http://www.w3.org/2000/svg" width="35.617" height="46.5" viewBox="724 220.683 35.617 46.5"><g data-name="noun-tax-4197547"><path d="M753.988 227.404a1.11 1.11 0 0 0-.047-.242l-.028-.084a.778.778 0 0 0-.186-.27l-5.817-5.816a1.001 1.001 0 0 0-.27-.186 1.171 1.171 0 0 0-.092-.028c-.075-.028-.158-.037-.233-.047-.027-.009-.046-.018-.065-.018h-22.32a.932.932 0 0 0-.93.93v39.01c0 .51.419.929.93.929h21.103c.586 3.178 3.373 5.594 6.719 5.594a6.845 6.845 0 0 0 6.839-6.84c0-3.345-2.416-6.133-5.594-6.718v-26.159c0-.018-.01-.037-.01-.055Zm-3.17-.874h-2.443a.196.196 0 0 1-.195-.195v-2.453l2.639 2.648Zm-24.96-3.959h20.463v3.764c0 1.134.92 2.054 2.054 2.054h3.763v25.145a6.844 6.844 0 0 0-6.189 6.19h-20.09V222.57Zm31.874 37.765c0 2.742-2.23 4.981-4.98 4.981a4.981 4.981 0 0 1 0-9.961c2.75 0 4.98 2.24 4.98 4.98Z" fill="#a67b48" fill-rule="evenodd" data-name="Path 1346"/><path d="M729.604 244.483h18.79c.51 0 .929-.418.929-.929a.932.932 0 0 0-.93-.93h-18.79a.932.932 0 0 0-.928.93c0 .511.418.93.929.93Z" fill="#a67b48" fill-rule="evenodd" data-name="Path 1347"/><path d="M729.604 250.142h18.79c.51 0 .929-.418.929-.929a.932.932 0 0 0-.93-.929h-18.79a.932.932 0 0 0-.928.93c0 .51.418.928.929.928Z" fill="#a67b48" fill-rule="evenodd" data-name="Path 1348"/><path d="M739.705 253.943h-10.101a.932.932 0 0 0-.93.93c0 .51.419.929.93.929h10.1c.512 0 .93-.418.93-.93a.932.932 0 0 0-.93-.929Z" fill="#a67b48" fill-rule="evenodd" data-name="Path 1349"/><path d="M734.668 238.443c.168.12.353.177.549.177.288 0 .566-.13.752-.381l7.574-10.362a.926.926 0 0 0-.205-1.3.926.926 0 0 0-1.3.204l-7.574 10.361a.925.925 0 0 0 .204 1.301Z" fill="#a67b48" fill-rule="evenodd" data-name="Path 1350"/><path d="M735.375 232.32c1.523 0 2.769-1.469 2.769-3.272 0-1.802-1.236-3.27-2.77-3.27-1.523 0-2.769 1.468-2.769 3.27 0 1.803 1.246 3.271 2.77 3.271Zm0-4.693c.427 0 .91.585.91 1.412s-.474 1.413-.91 1.413c-.437 0-.911-.586-.911-1.413 0-.827.483-1.412.91-1.412Z" fill="#a67b48" fill-rule="evenodd" data-name="Path 1351"/><path d="M739.863 235.98c0 1.803 1.236 3.272 2.769 3.272 1.524 0 2.77-1.469 2.77-3.271 0-1.803-1.237-3.271-2.77-3.271s-2.77 1.468-2.77 3.27Zm3.67 0c0 .837-.474 1.413-.91 1.413-.437 0-.911-.585-.911-1.412s.474-1.413.91-1.413c.437 0 .911.576.911 1.413Z" fill="#a67b48" fill-rule="evenodd" data-name="Path 1352"/><path d="M751.125 259.751a.925.925 0 1 0-1.31 1.31l1.478 1.478c.186.186.418.27.66.27a.952.952 0 0 0 .66-.27l3.084-3.085a.925.925 0 1 0-1.31-1.31l-2.425 2.425-.837-.818Z" fill="#a67b48" fill-rule="evenodd" data-name="Path 1353"/></g></svg>