<svg xmlns="http://www.w3.org/2000/svg" width="18.033" height="15.783" viewBox="1367.983 331.1 18.033 15.783"><g data-name="arrow-right-short"><path d="M1377.327 331.454a1.125 1.125 0 0 1 1.593 0l6.75 6.75a1.125 1.125 0 0 1 0 1.593l-6.75 6.75a1.126 1.126 0 1 1-1.593-1.593l5.955-5.954-5.955-5.954a1.125 1.125 0 0 1 0-1.593Z" fill="#fff" fill-rule="evenodd" data-name="Path 19"/><path d="M1367.998 339c0-.622.503-1.125 1.125-1.125h14.625a1.125 1.125 0 1 1 0 2.25h-14.625a1.125 1.125 0 0 1-1.125-1.125Z" fill="#fff" fill-rule="evenodd" data-name="Path 20"/></g></svg>