<svg xmlns="http://www.w3.org/2000/svg" width="40.3" height="33.65" viewBox="357.833 362.833 40.3 33.65"><g data-name="Group 62"><path d="M377.988 364.666c10.097 0 18.322 6.453 18.322 14.397 0 3.737-1.833 7.204-5.152 9.775-3.415 2.644-8.058 4.09-13.065 4.09-3.009 0-5.31-.312-7.256-.968-.063-.02-.135-.052-.21-.072-.03-.01-.061-.021-.082-.021a5.442 5.442 0 0 0-3.228.052l-.03.01c-.063.02-.928.343-1.145.447l-4.122 1.79c1.436-4.57 1.436-4.664 1.436-4.955 0-.74-.23-1.468-.656-2.103a2.975 2.975 0 0 0-.167-.219c-.073-.093-.135-.178-.188-.24-1.811-2.28-2.769-4.903-2.769-7.6-.01-7.93 8.214-14.383 18.312-14.383m0-1.666C366.943 363 358 370.194 358 379.063c0 3.196 1.165 6.174 3.164 8.672.093.093.302.395.375.51 0 0-.104-.167-.114-.198.24.343.374.739.374 1.165 0 .145-1.864 6.038-1.864 6.038-.135.457.22.927.79 1.04.084.022.168.022.251.022.135 0 .26-.021.385-.052l.167-.063 5.268-2.29c.093-.041.937-.364 1.041-.406l.062-.02s-.01 0-.062.02c.354-.124.75-.188 1.165-.188.375 0 .739.052 1.072.156.01 0 .02 0 .02.01.053.02.104.031.156.052 2.405.822 5.039 1.072 7.818 1.072 11.034 0 19.884-6.673 19.884-15.543.024-8.866-8.93-16.06-19.964-16.06Z" fill="#a67b48" fill-rule="evenodd" data-name="ios-chatbubble-outline"/><path d="M377.988 362.85c6.134 0 11.856 2.21 15.7 6.064 1.404 1.408 2.497 2.98 3.248 4.672a13.325 13.325 0 0 1 1.166 5.474c0 4.31-2.082 8.293-5.862 11.216-3.734 2.887-8.767 4.477-14.172 4.477-3.21 0-5.71-.343-7.866-1.08l-.007-.003a.79.79 0 0 0-.066-.021 1.049 1.049 0 0 1-.09-.03l-.037-.015a3.47 3.47 0 0 0-1-.14c-.377 0-.732.053-1.056.159l-.058.02-.303.117c-.267.103-.67.258-.728.284l-5.277 2.294-.183.067a1.703 1.703 0 0 1-.421.057c-.086 0-.183 0-.283-.025-.35-.07-.643-.265-.806-.534a.862.862 0 0 1-.096-.695c.724-2.287 1.807-5.749 1.858-6.006a1.828 1.828 0 0 0-.23-.881l-.007.004a4.413 4.413 0 0 0-.354-.484l-.011-.013c-2.092-2.613-3.197-5.644-3.197-8.765 0-2.193.534-4.32 1.587-6.321 1.016-1.931 2.47-3.665 4.321-5.153 3.801-3.056 8.855-4.739 14.23-4.739Zm.08 31.603c11.066 0 19.734-6.762 19.734-15.393.01-3.652-1.487-7.087-4.327-9.935-3.787-3.797-9.432-5.975-15.487-5.975-10.939 0-19.838 7.138-19.838 15.913 0 3.05 1.081 6.013 3.126 8.572.068.07.171.21.257.333l.015-.007c.262.376.401.809.401 1.251 0 .14-1.017 3.385-1.87 6.083a.556.556 0 0 0 .065.453c.12.198.342.342.611.396l.007.001a1.402 1.402 0 0 0 .555-.03l.155-.057 5.264-2.289c.06-.026.37-.146.74-.289l.305-.118.005-.002a.558.558 0 0 1 .072-.024l.004-.001a3.7 3.7 0 0 1 1.14-.172c.389 0 .76.053 1.1.158a.17.17 0 0 1 .078.03l.036.01c.026.008.055.017.086.03 2.123.724 4.591 1.062 7.766 1.062Zm-.08-29.937c10.185 0 18.472 6.525 18.472 14.547 0 3.778-1.85 7.291-5.21 9.893-3.433 2.658-8.105 4.122-13.157 4.122-3.006 0-5.327-.31-7.304-.976a2.438 2.438 0 0 1-.078-.028c-.041-.015-.083-.03-.124-.042l-.007-.002a.654.654 0 0 0-.041-.013h-.016l-.02-.006a5.288 5.288 0 0 0-3.138.05l-.031.01c-.057.02-.92.342-1.128.44l-.005.003-4.423 1.92.099-.313c1.429-4.548 1.429-4.647 1.429-4.91 0-.707-.218-1.405-.63-2.02-.05-.067-.098-.135-.157-.204l-.005-.006a14.142 14.142 0 0 1-.064-.083 3.79 3.79 0 0 0-.12-.151l-.003-.004c-1.832-2.308-2.801-4.968-2.801-7.694a11.702 11.702 0 0 1 1.042-4.827c.67-1.494 1.643-2.887 2.894-4.14 1.694-1.695 3.882-3.097 6.328-4.054 2.563-1.004 5.32-1.512 8.198-1.512Zm.105 28.262c4.986 0 9.593-1.441 12.973-4.059 3.285-2.544 5.094-5.973 5.094-9.656 0-7.856-8.152-14.247-18.172-14.247-5.619 0-10.836 1.997-14.314 5.479-2.521 2.525-3.852 5.552-3.848 8.754 0 2.656.946 5.251 2.734 7.505a4.042 4.042 0 0 1 .189.24c.067.078.12.154.173.227.448.668.684 1.424.684 2.19 0 .306 0 .403-1.345 4.687l3.819-1.658a23.755 23.755 0 0 1 1.159-.453l.03-.01a5.588 5.588 0 0 1 3.303-.059.508.508 0 0 1 .1.026c.051.015.1.033.143.049l.069.025c1.946.655 4.236.96 7.209.96Z" fill="#a67b48" fill-rule="evenodd" data-name="ios-chatbubble-outline - Outline"/><path d="M386.487 376.25h-17v-1.5h17v1.5Z" fill="#a67b48" fill-rule="evenodd" data-name="Line 38"/><path d="M386.463 382.25h-17v-1.5h17v1.5Z" fill="#a67b48" fill-rule="evenodd" data-name="Line 39"/></g></svg>