<svg xmlns="http://www.w3.org/2000/svg" width="44.383" height="42.733" viewBox="358 223 44.383 42.733"><g data-name="Group 61"><path d="M360.56 223a2.567 2.567 0 0 0-2.56 2.56v36.69a2.567 2.567 0 0 0 2.56 2.56h24.744a2.567 2.567 0 0 0 2.56-2.56v-3.84a.856.856 0 0 0-.853-.853.856.856 0 0 0-.854.853v3.84c0 .469-.384.853-.853.853H360.56a.856.856 0 0 1-.853-.853v-36.69c0-.47.383-.853.853-.853h18.345v4.692a2.567 2.567 0 0 0 2.56 2.56h.853c.469 0 .853-.384.853-.853a.856.856 0 0 0-.853-.853h-.854a.856.856 0 0 1-.853-.854v-3.498l5.546 5.546v.512c0 .47.384.853.854.853.469 0 .853-.384.853-.853v-.853a.842.842 0 0 0-.256-.597l-7.253-7.253a.842.842 0 0 0-.597-.256H360.56Z" fill="#a67b48" fill-rule="evenodd" data-name="Path 1409"/><path d="M364.4 234.946h11.092c.469 0 .853-.384.853-.854a.856.856 0 0 0-.853-.853h-11.093a.856.856 0 0 0-.853.853c0 .47.384.854.853.854Z" fill="#a67b48" fill-rule="evenodd" data-name="Path 1411"/><path d="M364.4 240.918h8.532c.47 0 .853-.384.853-.853a.856.856 0 0 0-.853-.853h-8.533a.856.856 0 0 0-.853.853c0 .47.384.853.853.853Z" fill="#a67b48" fill-rule="evenodd" data-name="Path 1412"/><path d="M364.4 246.891h8.532c.47 0 .853-.384.853-.853a.856.856 0 0 0-.853-.853h-8.533a.856.856 0 0 0-.853.853c0 .47.384.853.853.853Z" fill="#a67b48" fill-rule="evenodd" data-name="Path 1413"/><path d="M380.611 260.458c.256 0 .555-.043.81-.17a2.128 2.128 0 0 0 1.323-1.963v-2.517l2.56-2.56 11.903 11.903c.341.341.81.554 1.322.554s.982-.213 1.323-.554l1.963-1.963c.34-.341.554-.81.554-1.322s-.213-.982-.554-1.323l-11.903-11.945 2.56-2.56h2.516c.854 0 1.622-.512 1.963-1.323.341-.81.17-1.706-.47-2.304l-7.593-7.593c-.598-.598-1.536-.811-2.304-.47a2.128 2.128 0 0 0-1.323 1.963v2.517l-9.684 9.77h-2.517c-.853 0-1.621.512-1.963 1.322-.34.81-.17 1.707.47 2.304l7.594 7.594c.341.426.896.64 1.45.64Zm20.009 1.237c.043.043.043.085.043.128s0 .085-.043.128l-1.963 1.962c-.085.086-.17.086-.256 0L386.5 252.011l2.218-2.219 11.903 11.903Zm-13.61-25.384c0-.256.171-.342.257-.384a.414.414 0 0 1 .469.085l7.594 7.594c.17.17.128.384.085.47-.043.085-.128.255-.384.255h-2.517l-5.503-5.46v-2.56Zm-.853 4.095 4.779 4.779-9.045 9.044-3.584-3.584-1.194-1.194 9.044-9.045Zm-13.524 10.154c.043-.085.128-.256.384-.256h2.517l5.461 5.46v2.518c0 .256-.17.341-.256.384a.414.414 0 0 1-.47-.085l-7.593-7.594c-.128-.128-.085-.342-.043-.427Z" fill="#a67b48" fill-rule="evenodd" data-name="Path 1415"/></g></svg>