<svg xmlns="http://www.w3.org/2000/svg" width="35.117" height="51.817" viewBox="643.133 353.117 35.117 51.817"><g data-name="mic-outline"><path d="M669.03 404.908h-16.687a.85.85 0 1 1 0-1.7h16.686a.85.85 0 1 1 0 1.7Z" fill="#a67b48" fill-rule="evenodd" data-name="Path 1387"/><path d="M660.686 394.48c-2.357 0-4.649-.466-6.811-1.385a17.563 17.563 0 0 1-5.574-3.766 17.563 17.563 0 0 1-3.767-5.574 17.324 17.324 0 0 1-1.384-6.811v-4.172a.85.85 0 0 1 1.7 0v4.172c0 8.732 7.104 15.836 15.836 15.836s15.836-7.104 15.836-15.836v-4.172a.85.85 0 0 1 1.7 0v4.172c0 2.357-.465 4.649-1.384 6.81a17.563 17.563 0 0 1-3.766 5.575 17.563 17.563 0 0 1-5.575 3.766 17.324 17.324 0 0 1-6.81 1.385Z" fill="#a67b48" fill-rule="evenodd" data-name="Path 1388"/><path d="M660.686 404.908a.85.85 0 0 1-.85-.85V393.63a.85.85 0 0 1 1.7 0v10.428c0 .47-.38.85-.85.85Z" fill="#a67b48" fill-rule="evenodd" data-name="Path 1389"/><path d="M660.645 353.15h.045c5.151 0 9.19 4.038 9.19 9.193v14.47c0 5.141-4.125 9.324-9.194 9.324-2.432 0-4.736-.984-6.49-2.77-1.743-1.778-2.703-4.105-2.703-6.553v-14.47a9.209 9.209 0 0 1 2.68-6.513 9.092 9.092 0 0 1 6.472-2.681Zm.041 31.287c4.132 0 7.493-3.42 7.493-7.623v-14.47c0-4.203-3.291-7.494-7.493-7.494h-.041c-1.99 0-3.862.775-5.27 2.183a7.5 7.5 0 0 0-2.182 5.306v14.475c0 4.132 3.431 7.623 7.493 7.623Z" fill="#a67b48" fill-rule="evenodd" data-name="Path 1390"/></g></svg>