<svg xmlns="http://www.w3.org/2000/svg" width="42.817" height="42.7" viewBox="107.917 222.983 42.817 42.7"><g data-name="noun-network-6131294"><path d="M149.006 253.097a20.816 20.816 0 0 0-6.926-25.158 3.58 3.58 0 0 0-6.424-3.13 20.772 20.772 0 0 0-21.008 5.809 2.467 2.467 0 0 0-1.099-.266 2.493 2.493 0 0 0-1.8 4.227 20.81 20.81 0 0 0-2.701 10.243c0 .542.027 1.084.068 1.626a2.49 2.49 0 0 0 .88 4.57 20.736 20.736 0 0 0 6.196 9.495 3.4 3.4 0 0 0 5.753 3.574 20.69 20.69 0 0 0 7.94 1.571 20.913 20.913 0 0 0 14.863-6.243 3.82 3.82 0 0 0 4.258-6.318Zm.542-8.274a19.498 19.498 0 0 1-1.572 7.695 3.759 3.759 0 0 0-2.577-.032 41.117 41.117 0 0 0-6.648-8.52 3.385 3.385 0 0 0-1.09-5.009 41.472 41.472 0 0 0 1.593-8.833 3.577 3.577 0 0 0 2.204-1.186 19.666 19.666 0 0 1 8.089 15.885Zm-5.462 8.44a41.045 41.045 0 0 0-8.97-4.335c.004-.054.016-.104.016-.158a2.487 2.487 0 0 0-.78-1.805c.308-.568.603-1.144.884-1.73a3.353 3.353 0 0 0 2.661-.461 39.94 39.94 0 0 1 6.464 8.264 3.753 3.753 0 0 0-.275.226Zm-31.318-5.57a2.49 2.49 0 0 0-.684-.992 39.901 39.901 0 0 1 7.651-9.679 3.252 3.252 0 0 0 4.87-.909 40.285 40.285 0 0 1 8.3 4.498 3.393 3.393 0 0 0 1.253 4.156 39.927 39.927 0 0 1-.827 1.615 2.447 2.447 0 0 0-.699-.113 2.493 2.493 0 0 0-2.21 1.359 41.67 41.67 0 0 0-17.654.066Zm11.1-13.204a2.086 2.086 0 1 1-4.172.006 2.086 2.086 0 0 1 4.172-.006Zm14.387 7.448a2.222 2.222 0 1 1-4.443 0 2.222 2.222 0 0 1 4.443 0Zm-6.948 6.832a1.326 1.326 0 1 1 2.651 0 1.326 1.326 0 0 1-2.65 0Zm7.459-24.596a2.408 2.408 0 1 1 0 4.816 2.408 2.408 0 0 1 0-4.816Zm-.687 5.922a40.28 40.28 0 0 1-1.533 8.49 3.336 3.336 0 0 0-2.998 1.045 41.44 41.44 0 0 0-8.55-4.623 3.155 3.155 0 0 0-.277-1.918 40.089 40.089 0 0 1 10.76-5.08 3.594 3.594 0 0 0 2.598 2.086Zm-8.195-4.931a19.65 19.65 0 0 1 5.365.754 3.59 3.59 0 0 0-.064.666c0 .096.007.19.015.285a41.265 41.265 0 0 0-11.168 5.266 3.252 3.252 0 0 0-5.197.97c-.93-.208-1.87-.387-2.814-.53a2.477 2.477 0 0 0-.469-1.202 19.682 19.682 0 0 1 14.332-6.212Zm-16.335 6.365a1.325 1.325 0 1 1 0 2.65 1.325 1.325 0 0 1 0-2.65Zm-3.327 13.294c.002-3.368.871-6.68 2.522-9.615.26.093.532.142.807.145a2.498 2.498 0 0 0 2.33-1.613c.891.138 1.779.305 2.656.502-.006.082-.012.162-.012.247 0 .577.155 1.144.448 1.641a41.049 41.049 0 0 0-7.926 10.02 2.465 2.465 0 0 0-.613-.086c-.055 0-.109.013-.167.017a19.903 19.903 0 0 1-.045-1.258Zm-1.113 3.74a1.326 1.326 0 1 1 0 .001Zm2.094 2.365a2.493 2.493 0 0 0 1.7-2.063 40.482 40.482 0 0 1 17.23-.1c.002.627.24 1.23.668 1.688a39.773 39.773 0 0 1-9.115 9.24 3.388 3.388 0 0 0-4.787-.124 19.56 19.56 0 0 1-5.696-8.639Zm8.025 13.347a2.23 2.23 0 1 1 0-4.46 2.23 2.23 0 0 1 0 4.46Zm10.656.21a19.541 19.541 0 0 1-7.401-1.447 3.381 3.381 0 0 0-.144-2.368 40.957 40.957 0 0 0 9.439-9.56 2.45 2.45 0 0 0 2.99-1.06 39.937 39.937 0 0 1 8.572 4.13 3.797 3.797 0 0 0 .488 4.499 19.738 19.738 0 0 1-13.944 5.805Zm16.76-5.738a2.65 2.65 0 1 1 0-5.299 2.65 2.65 0 0 1 0 5.3Z" fill="#a67b48" fill-rule="evenodd" data-name="Path 1403"/></g></svg>