<svg xmlns="http://www.w3.org/2000/svg" width="38.017" height="38.017" viewBox="108 360 38.017 38.017"><g data-name="noun-insights-1361428"><path d="M143.34 362.171c.271 0 .489.218.489.489v26.383c0 3.746-3.04 6.786-6.84 6.786H117.01c-3.8 0-6.84-3.04-6.84-6.84V369.01c0-3.8 3.04-6.84 6.84-6.84h26.329m0-2.171h-26.329a8.99 8.99 0 0 0-9.011 9.011v20.032c0 4.94 4.017 8.957 9.011 8.957h20.032c4.94 0 8.957-4.017 8.957-9.011V362.66a2.664 2.664 0 0 0-2.66-2.66Z" fill="#a67b48" fill-rule="evenodd" data-name="Path 1404"/><g data-name="Group 57"><path d="M127 390.834c-.597 0-1.086-.434-1.086-.977v-22.963c0-.543.489-.977 1.086-.977.597 0 1.086.434 1.086.977v22.963c0 .543-.489.977-1.086.977Z" fill="#a67b48" fill-rule="evenodd" data-name="Path 1405"/></g><g data-name="Group 58"><path d="M117.229 390.834c-.598 0-1.086-.217-1.086-.488v-11.997c0-.272.488-.489 1.086-.489.597 0 1.085.217 1.085.489v11.997c0 .217-.488.488-1.085.488Z" fill="#a67b48" fill-rule="evenodd" data-name="Path 1406"/></g><g data-name="Group 59"><path d="M136.771 390.834c-.597 0-1.085-.325-1.085-.76v-18.24c0-.434.488-.76 1.085-.76.598 0 1.086.326 1.086.76v18.186c0 .434-.488.814-1.086.814Z" fill="#a67b48" fill-rule="evenodd" data-name="Path 1407"/></g></g></svg>