<svg xmlns="http://www.w3.org/2000/svg" width="54.2" height="45.45" viewBox="641.367 221.783 54.2 45.45"><g data-name="noun-law-1183172"><g data-name="Group 60"><path d="M668.47 221.999c-6.12 0-12.24 1.08-18.016 3.24a.625.625 0 0 0-.5.423l-3.768 11.46-3.604 10.961h-.365a.625.625 0 0 0-.625.645c.126 3.988 4.16 7.037 8.956 7.037 4.795 0 8.83-3.05 8.955-7.037a.625.625 0 0 0-.624-.645h-.365l-3.605-10.961-3.575-10.875a50.24 50.24 0 0 1 16.515-2.992v37.437c-2.03.048-3.86.323-5.263.764-.773.244-1.418.533-1.913.902-.496.37-.886.871-.886 1.49s.39 1.12.886 1.488c.496.367 1.14.656 1.914.899 1.546.486 3.608.771 5.887.771 2.275 0 4.336-.285 5.881-.771.773-.243 1.418-.532 1.913-.9.496-.367.886-.868.886-1.487 0-.619-.39-1.12-.885-1.49-.496-.369-1.14-.658-1.913-.902-1.402-.441-3.23-.716-5.257-.764v-37.437a50.24 50.24 0 0 1 16.508 2.993l-3.575 10.874-3.604 10.961h-.365a.625.625 0 0 0-.625.645c.126 3.988 4.16 7.037 8.956 7.037 4.795 0 8.83-3.05 8.955-7.037a.625.625 0 0 0-.624-.645h-.365l-3.605-10.961-3.767-11.46a.625.625 0 0 0-.5-.422 51.485 51.485 0 0 0-18.017-3.241Zm-17.922 5.86 3.174 9.653 3.475 10.571h-13.3l3.476-10.57 3.175-9.654Zm35.846 0 3.174 9.653 3.476 10.571h-13.3l3.475-10.57 3.175-9.654Zm-43.084 21.474h14.477c.118.065.254.09.388.071-.539 2.828-3.687 5.11-7.627 5.11-3.941 0-7.09-2.282-7.627-5.11.133.019.27-.006.388-.07Zm35.845 0h14.478c.118.065.254.09.387.071-.538 2.828-3.686 5.11-7.626 5.11-3.941 0-7.09-2.282-7.627-5.11.133.019.27-.006.388-.07Zm-10.681 12.602c2.168 0 4.135.282 5.506.714.686.216 1.222.473 1.542.712.32.239.382.405.382.488 0 .08-.06.245-.381.483-.32.238-.857.495-1.542.71-1.372.432-3.339.714-5.507.714-2.172 0-4.14-.282-5.513-.713-.686-.216-1.222-.473-1.543-.711-.32-.238-.38-.403-.38-.483 0-.083.06-.25.381-.488.32-.239.857-.496 1.543-.712 1.372-.432 3.34-.714 5.512-.714Z" fill="#a67b48" fill-rule="evenodd" data-name="Path 1408"/><path d="M668.47 221.799h.061c6.202.007 12.26 1.1 18.008 3.247.3.053.543.264.639.554l7.326 22.283h.22a.83.83 0 0 1 .593.251.83.83 0 0 1 .232.6c-.062 1.976-1.058 3.81-2.804 5.166-1.715 1.332-3.97 2.065-6.351 2.065-2.38 0-4.636-.733-6.352-2.065-1.746-1.356-2.742-3.19-2.804-5.166a.83.83 0 0 1 .232-.6.83.83 0 0 1 .593-.25h.22l7.074-21.514a49.858 49.858 0 0 0-16.058-2.912v37.04c1.942.059 3.707.324 5.117.768.84.264 1.485.57 1.972.932.632.47.966 1.041.966 1.65s-.334 1.179-.967 1.648c-.486.362-1.132.666-1.972.93-1.6.503-3.71.78-5.941.78-2.234 0-4.346-.277-5.947-.78-.84-.264-1.486-.568-1.973-.93-.633-.47-.967-1.04-.967-1.648 0-.609.334-1.18.966-1.65.487-.363 1.133-.668 1.973-.932 1.41-.444 3.177-.709 5.123-.768v-37.04a49.851 49.851 0 0 0-16.064 2.911l7.073 21.514h.22a.83.83 0 0 1 .593.251.83.83 0 0 1 .232.6c-.062 1.976-1.058 3.81-2.804 5.166-1.715 1.332-3.97 2.065-6.351 2.065-2.38 0-4.637-.733-6.352-2.065-1.746-1.356-2.742-3.19-2.804-5.166a.83.83 0 0 1 .232-.6.83.83 0 0 1 .593-.25h.22l7.327-22.284c.095-.29.339-.5.638-.554a51.452 51.452 0 0 1 18.069-3.247Zm25.745 26.484-7.417-22.558a.423.423 0 0 0-.34-.287l-.021-.004-.02-.007a51.055 51.055 0 0 0-17.946-3.228h-.06a51.049 51.049 0 0 0-17.887 3.228l-.02.007-.02.004a.423.423 0 0 0-.34.287l-7.418 22.558h-.51a.427.427 0 0 0-.424.439c.121 3.837 3.967 6.843 8.756 6.843 4.788 0 8.634-3.006 8.755-6.843a.428.428 0 0 0-.424-.439h-.51l-7.286-22.158.183-.066a50.263 50.263 0 0 1 16.58-3.004l.203-.003v37.836l-.196.004c-1.985.047-3.785.308-5.207.755-.797.251-1.403.536-1.854.872-.367.273-.805.726-.805 1.33 0 .602.438 1.053.805 1.326.451.335 1.058.619 1.855.87 1.563.49 3.633.761 5.827.761 2.191 0 4.259-.27 5.821-.762.797-.25 1.404-.535 1.854-.87.367-.272.805-.723.805-1.326 0-.603-.437-1.056-.805-1.33-.45-.335-1.056-.62-1.853-.871-1.421-.448-3.22-.709-5.202-.755l-.195-.004v-37.836l.202.003a50.26 50.26 0 0 1 16.575 3.005l.182.066-7.286 22.157h-.51a.428.428 0 0 0-.424.439c.121 3.837 3.967 6.843 8.756 6.843 4.788 0 8.634-3.006 8.755-6.843a.427.427 0 0 0-.424-.439h-.51Zm-43.667-21.064 6.926 21.064H643.62l6.927-21.064Zm6.373 20.664-6.373-19.384-6.374 19.384h12.747Zm29.473-20.664 6.926 21.064h-13.853l6.927-21.064Zm6.373 20.664-6.373-19.384-6.374 19.384h12.747Zm-49.509 1.25h14.58l.045.025a.43.43 0 0 0 .264.048l.276-.039-.052.274c-.275 1.443-1.205 2.773-2.62 3.744-1.439.987-3.286 1.53-5.203 1.53-1.918 0-3.765-.544-5.203-1.53-1.416-.971-2.347-2.301-2.62-3.744l-.053-.275.277.04a.428.428 0 0 0 .265-.048l.044-.025Zm14.482.4h-14.383a.829.829 0 0 1-.19.062c.66 2.706 3.782 4.72 7.38 4.72 3.6 0 6.72-2.013 7.382-4.72a.828.828 0 0 1-.19-.062Zm21.364-.4h14.58l.045.025a.43.43 0 0 0 .264.048l.276-.039-.052.274c-.275 1.443-1.205 2.773-2.62 3.744-1.439.987-3.286 1.53-5.203 1.53-1.918 0-3.765-.544-5.203-1.53-1.416-.972-2.347-2.301-2.62-3.744l-.053-.275.277.04a.43.43 0 0 0 .265-.048l.044-.025Zm14.482.4h-14.383a.828.828 0 0 1-.19.062c.66 2.706 3.782 4.72 7.38 4.72 3.6 0 6.72-2.013 7.382-4.72a.828.828 0 0 1-.19-.062Zm-25.112 12.201c2.077 0 4.106.264 5.566.724.676.213 1.244.476 1.602.743.306.228.462.446.462.648 0 .2-.155.416-.462.644-.357.265-.926.528-1.601.74-1.462.46-3.49.723-5.567.723-2.08 0-4.11-.263-5.573-.723-.675-.212-1.244-.475-1.602-.74-.306-.228-.462-.445-.462-.644 0-.202.156-.42.463-.648.357-.266.926-.53 1.602-.743 1.46-.46 3.492-.724 5.572-.724Zm7.23 2.112s-.017-.113-.301-.325c-.318-.236-.858-.485-1.483-.681-1.423-.448-3.408-.705-5.446-.705-2.041 0-4.028.257-5.452.705-.625.196-1.165.445-1.483.682-.286.212-.302.325-.302.328 0 0 .02.113.3.321.319.236.86.485 1.484.68 1.425.448 3.412.705 5.453.705 2.037 0 4.023-.257 5.447-.704.624-.197 1.165-.445 1.483-.68.282-.21.3-.323.3-.326Z" fill="#a67b48" fill-rule="evenodd" data-name="Path 1408 - Outline"/></g></g></svg>