<svg xmlns="http://www.w3.org/2000/svg" width="43.05" height="34.3" viewBox="107.983 227 43.05 34.3"><g data-name="noun-corporate-3857432"><path d="M124.133 229.017c0-.371.301-.672.672-.673h9.412c.37 0 .671.302.672.673v.336h1.344v-.336a2.019 2.019 0 0 0-2.016-2.017h-9.412a2.019 2.019 0 0 0-2.016 2.017v.336h1.344v-.336Z" fill="#a67b48" fill-rule="evenodd" data-name="Path 46"/><path d="M149.006 230.697h-38.99a2.019 2.019 0 0 0-2.016 2.017v23.528a2.019 2.019 0 0 0 2.016 2.017h15.462v1.68h-3.025a.672.672 0 0 0 0 1.345h14.116a.672.672 0 0 0 0-1.345h-3.025v-1.68h15.462a2.019 2.019 0 0 0 2.017-2.017v-23.528a2.019 2.019 0 0 0-2.017-2.017Zm-39.662 11.764h5.042v1.009c0 .371.3.672.672.672h3.361c.371 0 .672-.301.672-.672v-1.009h9.748v.84a.672.672 0 1 0 1.344 0v-.84h9.748v1.009c0 .371.3.672.672.672h3.361c.371 0 .672-.301.672-.672v-1.009h5.042v11.092h-40.334v-11.092Zm6.386.336v-2.016h2.017v2.016h-2.017Zm25.545 0v-2.016h2.017v2.016h-2.017Zm-31.259-10.755h38.99c.37 0 .672.3.672.672v8.403h-5.042v-1.008a.672.672 0 0 0-.672-.673h-3.361c-.371 0-.672.301-.672.673v1.008h-20.84v-1.008c0-.372-.3-.673-.672-.673h-3.361c-.371 0-.672.301-.672.673v1.008h-5.042v-8.403c0-.371.301-.672.672-.672Zm22.184 27.897h-5.378v-1.68h5.378v1.68Zm16.806-3.025h-38.99a.673.673 0 0 1-.672-.672v-1.344h40.334v1.344a.673.673 0 0 1-.672.672Z" fill="#a67b48" fill-rule="evenodd" data-name="Path 47"/></g></svg>