<svg xmlns="http://www.w3.org/2000/svg" width="303.967" height="162" viewBox="123.017 2741.483 303.967 162"><path d="M290.972 2753.305a314.342 314.342 0 0 0-30.392-5.472c-9.783-1.261-19.513-2.02-28.921-2.255-9.22-.231-18.222.038-26.754.8-8.422.752-16.457 1.99-23.88 3.68-7.376 1.678-14.202 3.814-20.288 6.35-6.073 2.528-11.451 5.472-15.987 8.748-9.147 6.607-14.826 14.468-16.88 23.362-2.053 8.895-.394 18.449 4.93 28.398 2.64 4.933 6.185 9.936 10.534 14.87 4.359 4.947 9.558 9.86 15.451 14.602.167.135 46.391 27.9 101.795 38.483 58.06 11.091 125.555 4.996 128.683 3.693 6.073-2.529 11.451-5.472 15.987-8.748 9.147-6.608 14.826-14.468 16.88-23.363 2.053-8.894.394-18.449-4.93-28.398-2.64-4.932-6.185-9.935-10.534-14.87-4.359-4.947-9.558-9.86-15.451-14.602-5.932-4.772-12.61-9.407-19.85-13.775-7.335-4.425-15.308-8.613-23.696-12.447-8.559-3.913-17.637-7.497-26.983-10.652a314.342 314.342 0 0 0-29.714-8.404m.9-3.897c83.41 19.257 143.473 67.585 134.155 107.945-9.317 40.36-84.488 57.467-167.898 38.21-83.41-19.256-143.474-67.585-134.156-107.945 9.317-40.36 84.488-57.467 167.898-38.21Z" fill="#efd3b1" fill-rule="evenodd" data-name="Ellipse 9"/></svg>